<svg width="13" height="27" viewBox="0 0 13 27" xmlns="http://www.w3.org/2000/svg" xmlns:sketch="http://www.bohemiancoding.com/sketch/ns"><title>fb</title><desc>Created with Sketch.</desc><path d="M2.672 13.155c.067.084.029.669.029.779l.004 12.344h5.352c.031-3.249.001-6.584.001-9.848 0-.047-.011-3.163.003-3.228l.023-.055c.007.001 3.405.028 3.523-.001l.06-.017.47-4.506h-4.062c-.016-.665.003-1.349.004-2.017 0-.609-.015-1.361.348-1.696l3.689-.371-.006-4.52c-.698-.042-1.526-.003-2.238-.003-.742 0-1.492-.016-2.221.033-1.389.092-2.511.506-3.322 1.197-1.176 1.885-1.631.266-1.64 7.379l-2.689.001.005 4.526 2.667.003" sketch:type="MSShapeGroup" fill="#fff"/></svg>