<?xml version="1.0" encoding="UTF-8" standalone="no"?>
<svg width="32px" height="31px" viewBox="0 0 32 31" version="1.1" xmlns="http://www.w3.org/2000/svg" xmlns:xlink="http://www.w3.org/1999/xlink" xmlns:sketch="http://www.bohemiancoding.com/sketch/ns">
    <!-- Generator: Sketch 3.3.3 (12072) - http://www.bohemiancoding.com/sketch -->
    <title>heart-border-red</title>
    <desc>Created with Sketch.</desc>
    <defs></defs>
    <g id="Page-1" stroke="none" stroke-width="1" fill="none" fill-rule="evenodd" sketch:type="MSPage">
        <path d="M22.319,0.997 C19.814,0.997 17.558,2.13 15.978,3.939 C14.397,2.13 12.141,0.997 9.636,0.997 C4.858,0.997 0.984,5.113 0.984,10.191 C0.984,11.556 1.212,12.868 1.608,14.122 C1.608,14.122 1.969,15.253 2.287,15.876 C5.934,23.837 15.978,29.001 15.978,29.001 C15.978,29.001 26.02,23.837 29.667,15.876 C29.667,15.876 30.138,14.815 30.347,14.122 C30.726,12.863 30.971,11.556 30.971,10.191 C30.971,5.113 27.097,0.997 22.319,0.997 L22.319,0.997 Z" id="heart-border-red" stroke="#DD2827" stroke-width="2" fill-opacity="0" fill="#FFFFFF" sketch:type="MSShapeGroup"></path>
    </g>
</svg>