<svg xmlns="http://www.w3.org/2000/svg" preserveAspectRatio="xMidYMid" width="31.969" height="30" viewBox="0 0 31.969 30"><defs><style>.cls-1 { fill: #fff; stroke: #fff; stroke-linejoin: round; stroke-width: 2px; opacity: 0.5; fill-opacity: 0; fill-rule: evenodd; }</style></defs><path d="M22.319.997c-2.505 0-4.761 1.133-6.341 2.942-1.581-1.809-3.837-2.942-6.342-2.942-4.778 0-8.652 4.116-8.652 9.194 0 1.365.228 2.677.624 3.931 0 0 .361 1.131.679 1.754 3.647 7.961 13.691 13.125 13.691 13.125s10.042-5.164 13.689-13.125c0 0 .471-1.061.68-1.754.379-1.259.624-2.566.624-3.931 0-5.078-3.874-9.194-8.652-9.194z" class="cls-1"/></svg>