<svg width="35" height="33" viewBox="0 0 35 33" xmlns="http://www.w3.org/2000/svg" xmlns:sketch="http://www.bohemiancoding.com/sketch/ns"><title>heart</title><desc>Created with Sketch.</desc><path d="M24.57.818c-2.848 0-5.414 1.299-7.211 3.373-1.797-2.073-4.362-3.373-7.211-3.373-5.432 0-9.837 4.719-9.837 10.542 0 1.566.259 3.07.71 4.508 0 0 .41 1.297.772 2.011 4.146 9.129 15.567 15.05 15.567 15.05s11.419-5.921 15.565-15.05c0 0 .535-1.217.773-2.011.432-1.444.71-2.942.71-4.508 0-5.823-4.404-10.542-9.837-10.542z" sketch:type="MSShapeGroup" fill="#DD2827"/></svg>