<svg width="25" height="25" viewBox="0 0 25 25" xmlns="http://www.w3.org/2000/svg" xmlns:sketch="http://www.bohemiancoding.com/sketch/ns"><title>in</title><desc>Created with Sketch.</desc><path d="M21.398.001c-3.059-.003-6.118 0-9.178 0-3.034 0-6.072-.003-9.109 0-1.892.002-3.093 1.138-3.098 3.014-.017 6.142-.018 12.282.001 18.424.006 1.831 1.154 2.997 2.974 3.004 6.164.023 12.328.023 18.492.004 1.847-.006 2.994-1.21 2.994-3.054.007-6.12.007-12.238 0-18.356-.002-1.871-1.19-3.034-3.076-3.036zm-3.465 2.892c.904-.009 1.808-.011 2.711 0 .603.009.924.349.935.933.022.903.022 1.806 0 2.71-.013.621-.367.946-.994.953h-1.355c-.428.001-.856.008-1.288 0-.586-.014-.939-.305-.951-.907-.017-.928-.013-1.853-.002-2.78.01-.604.352-.905.944-.909zm-5.733 4.663c2.571-.021 4.666 2.051 4.686 4.638.019 2.586-2.047 4.673-4.631 4.678-2.585.007-4.647-2.059-4.65-4.656-.003-2.553 2.053-4.638 4.595-4.66zm9.387 3.508c0 3.081.002 6.164 0 9.246-.002.959-.258 1.247-1.182 1.247-5.441.009-10.88.009-16.319.002-.865-.002-1.191-.301-1.192-1.114-.011-3.22-.005-6.437-.003-9.656l.041-.364h1.956c-.54 2.894.151 5.411 2.339 7.409 1.566 1.429 3.452 2.059 5.561 1.915 4.022-.277 7.822-3.974 6.817-9.338h1.982v.653z" sketch:type="MSShapeGroup" fill="#fff"/></svg>