<svg width="317" height="63" viewBox="0 0 317 63" xmlns="http://www.w3.org/2000/svg" xmlns:sketch="http://www.bohemiancoding.com/sketch/ns"><title>logo</title><desc>Created with Sketch.</desc><g sketch:type="MSLayerGroup" fill="none"><path d="M166.007 15.666h4.261v25.684c0 .959.294 1.867 1.435 1.867.452 0 1.148-.087 1.723-.263l.817 3.841c-1.145.348-2.211.524-3.399.524-3.06 0-4.837-1.763-4.837-5.785v-25.868" fill="#fff" sketch:type="MSShapeGroup"/><path d="M177.002 15.666h4.261v25.684c0 .959.294 1.867 1.435 1.867.449 0 1.148-.087 1.723-.263l.819 3.841c-1.149.348-2.213.524-3.403.524-3.059 0-4.836-1.763-4.836-5.785v-25.868" fill="#fff" sketch:type="MSShapeGroup"/><path d="M105.58 41.496c1.925 1.133 3.371 1.92 6.282 1.92 2.295 0 4.633-.483 4.633-2.487 0-.396-.124-.743-.328-1.005-1.722-2.092-9.142-.653-11.519-4.751-.45-.788-.738-1.834-.738-3.099 0-4.447 3.525-6.628 7.952-6.628 2.952 0 4.93.699 7.883 2.008l-1.435 3.707c-2.748-1.094-3.824-1.571-6.284-1.571-2.539 0-3.647.87-3.647 2.223 0 .392.081.699.245.957 1.352 2.356 8.199 1.049 11.069 4.102.778.825 1.27 2.005 1.27 3.705 0 5.147-4.263 6.979-8.978 6.979-3.442 0-5.79-.916-8.127-2.355l1.724-3.707" fill="#fff" sketch:type="MSShapeGroup"/><path d="M82.159 38.355v-12.341h4.261v12.122c0 3.75 1.71 5.279 5.234 5.279s5.232-1.441 5.232-5.193v-12.209h4.261v12.341c0 6.586-4.084 9.202-9.575 9.202-5.535 0-9.413-2.661-9.413-9.202" fill="#fff" sketch:type="MSShapeGroup"/><path d="M79.731 42.819c-.615.173-1.394.26-1.884.26-1.149 0-2.05-.433-2.87-1.131-1.639-1.414-4.819-8.227-4.819-8.227 4.218-.904 7.339-3.988 7.339-8.754 0-4.531-3.312-8.028-6.821-9.089-1.416-.427-3.375-.524-4.689-.524h-9.303v31.733h4.345v-12.407h4.584s4.389 8.845 6.659 10.708c1.339 1.099 2.909 1.916 4.96 1.916 1.272 0 2.624-.218 3.402-.567l-.902-3.919zm-14.491-12.28h-4.212v-10.888h6.382c2.163 0 3.388.904 4.021 1.577.931.99 1.516 2.365 1.516 3.825 0 2.351-1.354 4.397-3.443 5.051-1.107.348-2.504.434-4.264.434z" fill="#fff" sketch:type="MSShapeGroup"/><path d="M125.119 41.496c1.927 1.133 3.374 1.92 6.283 1.92 2.295 0 4.633-.483 4.633-2.487 0-.396-.123-.743-.328-1.005-1.723-2.092-9.141-.653-11.518-4.751-.452-.788-.739-1.834-.739-3.099 0-4.447 3.524-6.628 7.952-6.628 2.952 0 4.932.699 7.884 2.008l-1.436 3.707c-2.746-1.094-3.823-1.571-6.282-1.571-2.544 0-3.648.87-3.648 2.223 0 .392.08.699.245.957 1.354 2.356 8.199 1.049 11.069 4.102.779.825 1.269 2.005 1.269 3.705 0 5.147-4.26 6.979-8.976 6.979-3.442 0-5.792-.916-8.126-2.355l1.72-3.707" fill="#fff" sketch:type="MSShapeGroup"/><path d="M142.72 36.961c0-7.196 4.797-11.513 11.437-11.513 4.508 0 8.444 2.05 8.444 6.409 0 4.231-3.692 6.718-10.657 6.718-1.518 0-3.115-.045-4.55-.22.203 3.314 2.787 5.061 6.641 5.061 2.706 0 4.59-.613 6.762-1.616l1.353 3.71c-2.417 1.264-5.043 2.049-8.607 2.049-6.601 0-10.822-4.143-10.822-10.598m8.978-2.399c5.08 0 6.434-1.484 6.434-2.833 0-1.395-1.599-2.136-3.935-2.136-3.402 0-5.984 1.613-6.64 4.75 1.351.177 2.868.219 4.141.219" fill="#fff" sketch:type="MSShapeGroup"/><path d="M200.2 15.626h4.345v13.16h14.835v-13.16h4.344v31.495h-4.344v-14.192h-14.835v14.192h-4.345v-31.495" fill="#fff" sketch:type="MSShapeGroup"/><path d="M226.607 36.523c0-6.149 4.428-11.076 11.108-11.076 6.6 0 11.025 4.928 11.025 11.076 0 6.106-4.386 11.036-11.108 11.036-6.598 0-11.025-4.929-11.025-11.036m17.667 0c0-3.967-2.625-6.932-6.559-6.932-4.016 0-6.64 3.008-6.64 6.932 0 3.882 2.624 6.892 6.558 6.892 4.016 0 6.642-3.01 6.642-6.892" fill="#fff" sketch:type="MSShapeGroup"/><path d="M301.332 41.496c1.929 1.133 3.374 1.92 6.284 1.92 2.296 0 4.635-.483 4.635-2.487 0-.396-.123-.743-.33-1.005-1.721-2.092-9.143-.653-11.521-4.751-.451-.788-.737-1.834-.737-3.099 0-4.447 3.527-6.628 7.952-6.628 2.952 0 4.935.699 7.884 2.008l-1.435 3.707c-2.748-1.094-3.826-1.571-6.286-1.571-2.54 0-3.649.87-3.649 2.223 0 .392.082.699.246.957 1.356 2.356 8.205 1.049 11.072 4.102.779.825 1.269 2.005 1.269 3.705 0 5.147-4.263 6.979-8.977 6.979-3.445 0-5.79-.916-8.126-2.355l1.719-3.707" fill="#fff" sketch:type="MSShapeGroup"/><path d="M262.333 25.447c-2.717 0-4.858.826-6.683 2.207v-11.964h-4.232v28.14s4.235 3.342 10.832 3.342c6.728 0 10.918-4.543 10.918-10.648 0-6.149-4.236-11.076-10.834-11.076m-.084 17.58c-3.928 0-6.36-1.725-6.36-1.725v-4.779c0-3.924 2.428-6.931 6.445-6.931 3.936 0 6.365 2.964 6.365 6.931 0 3.881-2.429 6.504-6.449 6.504" fill="#fff" sketch:type="MSShapeGroup"/><path d="M286.704 25.447c-2.715 0-4.858.826-6.682 2.204v-11.961h-4.231v28.14s4.235 3.342 10.833 3.342c6.724 0 10.914-4.543 10.914-10.648 0-6.149-4.236-11.076-10.834-11.076m-.08 17.58c-4.269 0-6.366-1.725-6.366-1.725v-4.779c0-3.924 2.428-6.931 6.446-6.931 3.937 0 6.366 2.964 6.366 6.931 0 3.881-2.43 6.504-6.446 6.504" fill="#fff" sketch:type="MSShapeGroup"/><path d="M43.075 31.456c0 17.155-9.461 31.061-21.13 31.061-11.67 0-21.129-13.906-21.129-31.061 0-17.154 9.459-31.061 21.129-31.061 11.67 0 21.13 13.907 21.13 31.061" fill="#ED1D24" sketch:type="MSShapeGroup"/><path d="M13.121 13.647c1.133.186 2.323-.044 3.434-.309.846-.195 1.805-.535 2.644-.822.892.752 2.868 2.684 3.791 3.516l.55.55-.736.201v.001c-.563.163-1.003.307-1.488.468l.68.442c.613-.179 1.334-.395 2.091-.592l.456.412-.001.002.027.021.208.175h.014c1.301 1.027 2.945 1.733 4.831 2.045 1.642.269 3.308-.065 4.855-.633.937-.343 1.732-.981 1.399-2.086-.359-1.196-2.183-1.442-3.199-1.551-1.921-.207-3.905.029-5.799.354l-.655.122c-.252-.225-.513-.445-.772-.643-1.045-.878-3.312-2.819-4.36-3.637.331-.135.717-.292 1.09-.435l.251-.088.8-.277c.999.824 2.479 1.801 4.493 2.229 1.225.258 2.471-.061 3.627-.582.703-.318 1.294-.902 1.047-1.917-.269-1.098-1.633-1.322-2.392-1.423-1.435-.19-2.918.025-4.333.323l-.384.088.001.003c-.207.041-.424.09-.651.149l-.271-.225c-2.199-1.773-2.549-3.091-2.284-4.305.076-.353-.856.702-.923 1.808-.057.947.137 2.093 1.377 3.248l.123.111-.541.208-.004-.003-.195.084c-.43.176-.889.372-1.386.595-1.79-1.276-3.612-2.137-5.578-2.012-.96.063-5.235.988-3.76 3.306.372.585 1.366.986 1.922 1.078m17.037 2.825c1.074.076 2.176.037 2.856.975.368.506.298 1.166-.05 1.627l-.223-.016c-.629-.055-1.248-.194-1.856-.359-1.441-.382-2.208-.924-3.469-1.703h-.001l-.512-.428c1.152-.138 2.18-.177 3.255-.096m-4.141-6.332c.733-.092 1.408-.11 2.11-.049.801.071 1.624.034 2.132.897.276.466.224 1.073-.037 1.497l-.166-.015c-.47-.051-.934-.178-1.388-.328-1.077-.352-1.999-.803-2.942-1.521l-.43-.336c.264-.062.503-.11.72-.144m-12.655-.16c.218.002.436.022.651.048.771.083 1.53.327 2.261.622.88.352 1.575.869 2.401 1.46-.808.263-1.746.546-2.576.624-.937.09-2.532.105-3.015-1.177-.2-.534-.049-1.182.278-1.577" fill="#fff" sketch:type="MSShapeGroup"/><path d="M36.858 32.759c-.931-.768-2.1-1.373-3.64-1.507l-.399 1.122c2.334.406 3.428 2.458 3.566 3.909.143 1.492-.406 3.191-1.96 3.517-2.084.435-3.484-1.197-3.669-3.031-.131-1.284.463-3.169.914-4.384.006 0 .581-1.513.577-1.513l1.52-3.953c.158-.41.564-1.407.589-1.469.362-.893.871-2.054 1.661-2.046.662.008 1.288.436 1.288.436l.697-1.186s-.767-.441-1.597-.463c-1.492-.041-2.691.461-3.594 1.538-.288.308-.502.671-.71 1.057-.676 1.258-1.103 2.689-1.616 4.022-.241.623-.526 1.33-.811 2.171h-3.388c.356-2.247.681-8.148-4.609-12.431-1.993-1.616-4.495-3.11-8.017-3.112l-.253.015c-1.118.052-2.226.247-3.279.642-.774.29-1.584.644-1.882 1.472-.388 1.078 1.101 1.769 1.864 2.017 1.684.547 3.603.439 5.329.214.868-.112 1.434-.202 2.231-.388-.234-.199-.627-.409-.627-.409-1.077.173-2.098.172-3.337-.009-.812-.122-1.728-.359-2.352-.921-.215-.194-.361-.447-.424-.728-.056-.255.004-.498.122-.724.065-.1.139-.19.226-.269l.038-.031.073-.009h.026c2.452.057 4.746 1.132 6.783 2.454l.586.392.123.083c2.01 1.39 3.415 3.283 4.318 5.555.957 2.414 2.271 8.454-3.291 12.596.161.27.646.863.968 1.216 1.94-.977 3.971-3.097 5.156-6.28h3.114c-.847 2.08-1.261 4.074-.509 5.863 1.607 3.82 7.549 3.335 9.167.115.886-1.77.476-4.339-.976-5.541" fill="#fff" sketch:type="MSShapeGroup"/><path d="M31.063 49.055c-1.134-.185-2.322.042-3.436.307-.846.195-1.804.535-2.643.823-.892-.753-2.869-2.685-3.79-3.518l-.552-.547.736-.202-.002-.002c.568-.164.932-.274 1.422-.439-.388-.238-.684-.46-.684-.46-.596.177-1.257.383-2.018.58l-.457-.411h.002l-.028-.023-.209-.174h-.013c-1.301-1.027-2.944-1.734-4.83-2.044-1.644-.271-3.308.062-4.855.632-.937.343-1.732.982-1.4 2.087.359 1.194 2.184 1.44 3.201 1.549 1.919.207 3.903-.029 5.797-.354l.656-.12c.252.221.514.444.773.642 1.043.878 3.309 2.817 4.357 3.636-.331.136-.717.292-1.088.436l-.252.088-.8.278c-.999-.826-2.479-1.8-4.492-2.229-1.225-.259-2.472.062-3.628.58-.701.317-1.295.904-1.046 1.92.268 1.097 1.633 1.322 2.392 1.423 1.434.19 2.917-.026 4.331-.324l.386-.09-.002-.001c.208-.041.424-.089.651-.148l.271.224c2.2 1.772 2.549 3.09 2.284 4.305-.077.353.858-.703.924-1.808.055-.948-.139-2.093-1.378-3.247l-.122-.113.54-.208.005.004.195-.084c.429-.176.888-.372 1.387-.596 1.789 1.274 3.61 2.136 5.577 2.01.961-.061 5.235-.986 3.761-3.306-.374-.582-1.367-.985-1.922-1.076m-17.038-2.826c-1.074-.076-2.175-.037-2.855-.974-.368-.507-.302-1.167.049-1.63l.222.017c.629.056 1.248.195 1.856.356 1.441.385 2.206.927 3.467 1.707l.003-.002c.159.126.331.271.511.43-1.15.137-2.177.174-3.253.095m4.143 6.332c-.733.091-1.41.111-2.111.048-.801-.071-1.625-.035-2.135-.896-.275-.467-.224-1.073.039-1.497l.165.016c.47.05.933.178 1.388.327 1.077.352 1.999.803 2.943 1.522l.427.334c-.263.062-.503.11-.716.145m12.654.16c-.218-.003-.437-.022-.653-.048-.769-.082-1.526-.327-2.26-.622-.88-.352-1.574-.869-2.401-1.463.808-.26 1.746-.541 2.578-.62.935-.092 2.531-.106 3.013 1.176.202.536.05 1.181-.277 1.577" fill="#fff" sketch:type="MSShapeGroup"/><path d="M35.878 10.179c-3.758-5.522-8.705-8.563-13.933-8.563-5.227 0-10.175 3.042-13.929 8.563-3.856 5.667-5.978 13.221-5.978 21.278 0 8.053 2.122 15.61 5.978 21.276 3.755 5.523 8.701 8.565 13.929 8.565s10.175-3.042 13.933-8.565c3.854-5.665 5.977-13.222 5.977-21.276 0-8.058-2.123-15.611-5.977-21.278m-.618 42.136c-3.614 5.31-8.343 8.235-13.315 8.235-4.972 0-9.7-2.925-13.313-8.235-3.773-5.546-5.85-12.952-5.85-20.858 0-7.908 2.077-15.315 5.85-20.857 3.613-5.311 8.341-8.239 13.313-8.239 4.972 0 9.701 2.926 13.315 8.239 3.771 5.541 5.849 12.949 5.849 20.857 0 7.906-2.078 15.312-5.849 20.858" fill="#fff" sketch:type="MSShapeGroup"/><path d="M33.971 42.679c-1.498-.198-3.069.046-4.541.32-1.028.19-1.707.336-2.651.585.263.215.667.436.667.436.923-.225 1.573-.308 2.59-.384 1.235-.093 3.346-.112 3.982 1.237.267.563.067 1.243-.364 1.658-.289-.004-.579-.025-.863-.05-1.018-.088-2.019-.345-2.989-.653-1.17-.374-2.322-.893-3.424-1.522h.002l-.337-.196c-2.28-1.352-4.35-3.159-5.998-5.097-1.394-1.644-2.366-3.501-3.241-5.438 1.984-.553 3.743-1.759 4.46-3.652 1.104-3.5-1.795-6.49-5.018-7.338-3.56-.936-7.849.139-9.255 3.545-.89 2.153-.176 4.585 2.449 6.354l.898-2.144c-1.474-1.224-2.237-2.946-1.571-4.562 1.095-2.655 4.328-2.646 6.52-1.693 2.532 1.101 4.093 3.766 3.3 6.28-.354.935-1.046 1.888-2.046 2.206-.897.285-1.91.156-2.833-.146.868-2.272 1.548-4.076 2.412-6.348-.528-.426-1.427-.888-2.131-1.088-.017.025-1.694 4.441-2.616 6.855-.564 1.477-1.126 2.955-1.694 4.43-.146.387-.292.773-.447 1.156-.36.892-.869 2.058-1.66 2.047-.661-.007-1.288-.434-1.288-.434l-.699 1.183s.768.444 1.597.464c2.269.06 3.766-1.164 4.766-3.677.416-1.04.806-2.09 1.205-3.136.256.028.517.048.781.054 1.243 2.778 2.706 5.268 4.921 7.424 1.31 1.274 2.877 2.532 4.59 3.56h-.002l.364.215.004-.003c2.409 1.384 5.083 2.294 7.73 2.159 1.272-.063 6.919-1.035 4.969-3.473-.493-.616-1.803-1.037-2.539-1.132" fill="#fff" sketch:type="MSShapeGroup"/></g></svg>