<?xml version="1.0" encoding="UTF-8" standalone="no"?>
<svg width="226px" height="80px" viewBox="0 0 226 80" version="1.1" xmlns="http://www.w3.org/2000/svg" xmlns:xlink="http://www.w3.org/1999/xlink" xmlns:sketch="http://www.bohemiancoding.com/sketch/ns">
    <!-- Generator: Sketch 3.3.3 (12072) - http://www.bohemiancoding.com/sketch -->
    <title>logo-mobile</title>
    <desc>Created with Sketch.</desc>
    <defs></defs>
    <g id="Page-1" stroke="none" stroke-width="1" fill="none" fill-rule="evenodd" sketch:type="MSPage">
        <g id="logo-mobile" sketch:type="MSLayerGroup">
            <path d="M54.761,40.082 C54.761,62.043 42.651,79.836 27.716,79.836 C12.778,79.836 0.672,62.043 0.672,40.082 C0.672,18.127 12.778,0.329 27.716,0.329 C42.651,0.329 54.761,18.127 54.761,40.082" id="Fill-1" fill="#ED1D24" sketch:type="MSShapeGroup"></path>
            <path d="M202.596,0.734 L207.555,0.734 L207.555,30.611 C207.555,31.728 207.898,32.781 209.226,32.781 C209.753,32.781 210.561,32.68 211.229,32.475 L212.183,36.943 C210.847,37.347 209.606,37.553 208.222,37.553 C204.664,37.553 202.596,35.498 202.596,30.824 L202.596,0.734 L202.596,0.734 Z M216.039,0.734 L220.996,0.734 L220.996,30.611 C220.996,31.728 221.339,32.781 222.664,32.781 C223.19,32.781 224.002,32.68 224.67,32.475 L225.619,36.943 C224.286,37.347 223.047,37.553 221.662,37.553 C218.105,37.553 216.039,35.498 216.039,30.824 L216.039,0.734 L216.039,0.734 Z M102.461,27.123 L102.461,12.769 L107.419,12.769 L107.419,26.873 C107.419,31.233 109.405,33.009 113.505,33.009 C117.606,33.009 119.591,31.34 119.591,26.972 L119.591,12.769 L124.551,12.769 L124.551,27.123 C124.551,34.786 119.798,37.833 113.413,37.833 C106.975,37.833 102.461,34.741 102.461,27.123 L102.461,27.123 Z M99.054,32.306 C98.336,32.511 97.427,32.61 96.854,32.61 C95.516,32.61 94.465,32.105 93.509,31.29 C91.599,29.644 87.889,21.697 87.889,21.697 C92.809,20.645 96.447,17.048 96.447,11.492 C96.447,6.204 92.586,2.128 88.492,0.892 C86.841,0.388 84.561,0.28 83.023,0.28 L72.172,0.28 L72.174,37.287 L77.242,37.287 L77.242,22.815 L82.588,22.815 C82.588,22.815 87.706,33.13 90.351,35.304 C91.914,36.585 93.745,37.54 96.138,37.54 C97.62,37.54 99.197,37.287 100.106,36.877 L99.054,32.306 L99.054,32.306 Z M82.154,17.984 L77.242,17.984 L77.242,5.295 L84.683,5.295 C87.208,5.295 88.636,6.343 89.372,7.127 C90.458,8.283 91.142,9.888 91.142,11.591 C91.142,14.329 89.564,16.718 87.126,17.482 C85.835,17.887 84.21,17.984 82.154,17.984 L82.154,17.984 Z M130.356,30.783 C132.596,32.099 134.277,33.009 137.663,33.009 C140.333,33.009 143.049,32.45 143.049,30.119 C143.049,29.66 142.907,29.258 142.672,28.953 C140.669,26.52 132.035,28.192 129.273,23.424 C128.745,22.511 128.413,21.29 128.413,19.819 C128.413,14.645 132.513,12.113 137.663,12.113 C141.096,12.113 143.396,12.924 146.833,14.448 L145.164,18.755 C141.968,17.486 140.715,16.931 137.855,16.931 C134.898,16.931 133.612,17.943 133.612,19.515 C133.612,19.972 133.706,20.331 133.895,20.636 C135.468,23.372 143.432,21.848 146.77,25.399 C147.676,26.369 148.247,27.734 148.247,29.715 C148.247,35.701 143.292,37.833 137.804,37.833 C133.803,37.833 131.069,36.767 128.35,35.09 L130.356,30.783 L130.356,30.783 Z M153.735,30.783 C155.976,32.099 157.66,33.009 161.046,33.009 C163.714,33.009 166.433,32.45 166.433,30.119 C166.433,29.66 166.288,29.258 166.054,28.953 C164.046,26.52 155.419,28.192 152.651,23.424 C152.131,22.511 151.792,21.29 151.792,19.819 C151.792,14.645 155.895,12.113 161.046,12.113 C164.477,12.113 166.782,12.924 170.214,14.448 L168.544,18.755 C165.348,17.486 164.099,16.931 161.236,16.931 C158.275,16.931 156.991,17.943 156.991,19.515 C156.991,19.972 157.088,20.331 157.279,20.636 C158.851,23.372 166.815,21.848 170.154,25.399 C171.058,26.369 171.63,27.734 171.63,29.715 C171.63,35.701 166.672,37.833 161.185,37.833 C157.18,37.833 154.451,36.767 151.732,35.09 L153.735,30.783 L153.735,30.783 Z M174.859,25.499 C174.859,17.13 180.44,12.113 188.163,12.113 C193.406,12.113 197.984,14.492 197.984,19.568 C197.984,24.484 193.693,27.381 185.587,27.381 C183.824,27.381 181.965,27.33 180.296,27.123 C180.533,30.979 183.535,33.009 188.022,33.009 C191.167,33.009 193.359,32.299 195.887,31.132 L197.461,35.449 C194.648,36.921 191.595,37.833 187.448,37.833 C179.77,37.833 174.859,33.009 174.859,25.499 L174.859,25.499 Z M185.3,22.711 C191.213,22.711 192.789,20.987 192.789,19.414 C192.789,17.794 190.93,16.931 188.21,16.931 C184.254,16.931 181.248,18.808 180.485,22.457 C182.059,22.663 183.824,22.711 185.3,22.711 L185.3,22.711 Z M72.174,42.649 L77.242,42.649 L77.242,57.996 L94.545,57.996 L94.545,42.649 L99.609,42.649 L99.609,79.379 L94.545,79.379 L94.545,62.826 L77.242,62.826 L77.242,79.379 L72.174,79.379 L72.174,42.649 L72.174,42.649 Z M103.621,67.016 C103.621,59.852 108.785,54.104 116.573,54.104 C124.273,54.104 129.433,59.852 129.433,67.016 C129.433,74.137 124.32,79.884 116.48,79.884 C108.785,79.884 103.621,74.137 103.621,67.016 L103.621,67.016 Z M124.225,67.016 C124.225,62.388 121.163,58.935 116.573,58.935 C111.89,58.935 108.83,62.44 108.83,67.016 C108.83,71.544 111.89,75.054 116.48,75.054 C121.163,75.054 124.225,71.544 124.225,67.016 L124.225,67.016 Z M192.715,72.816 C194.963,74.137 196.647,75.054 200.043,75.054 C202.72,75.054 205.447,74.494 205.447,72.152 C205.447,71.699 205.304,71.287 205.065,70.98 C203.055,68.544 194.402,70.223 191.628,65.443 C191.099,64.525 190.77,63.303 190.77,61.828 C190.77,56.641 194.882,54.104 200.043,54.104 C203.486,54.104 205.797,54.916 209.237,56.441 L207.567,60.76 C204.361,59.49 203.103,58.935 200.231,58.935 C197.272,58.935 195.98,59.951 195.98,61.523 C195.98,61.982 196.073,62.345 196.265,62.644 C197.842,65.391 205.835,63.865 209.174,67.422 C210.085,68.39 210.654,69.765 210.654,71.746 C210.654,77.751 205.686,79.884 200.185,79.884 C196.169,79.884 193.434,78.818 190.708,77.144 L192.715,72.816 L192.715,72.816 Z M145.935,54.104 C142.765,54.104 140.27,55.063 138.14,56.674 L138.14,42.723 L133.203,42.723 L133.203,75.535 C133.203,75.535 138.143,79.433 145.837,79.433 C153.68,79.433 158.568,74.137 158.568,67.016 C158.568,59.852 153.63,54.104 145.935,54.104 L145.935,54.104 Z M145.837,74.601 C141.256,74.601 138.419,72.588 138.419,72.588 L138.419,67.016 C138.419,62.44 141.253,58.935 145.935,58.935 C150.523,58.935 153.359,62.388 153.359,67.016 C153.359,71.544 150.523,74.601 145.837,74.601 L145.837,74.601 Z M175.004,54.104 C171.839,54.104 169.341,55.063 167.212,56.672 L167.212,42.723 L162.279,42.723 L162.279,75.535 C162.279,75.535 167.218,79.433 174.913,79.433 C182.75,79.433 187.639,74.137 187.639,67.016 C187.639,59.852 182.703,54.104 175.004,54.104 L175.004,54.104 Z M174.913,74.601 C169.936,74.601 167.487,72.588 167.487,72.588 L167.487,67.016 C167.487,62.44 170.321,58.935 175.004,58.935 C179.596,58.935 182.43,62.388 182.43,67.016 C182.43,71.544 179.596,74.601 174.913,74.601 L174.913,74.601 Z" id="Fill-2" fill="#FFFFFF" sketch:type="MSShapeGroup"></path>
            <path d="M16.421,17.29 C17.869,17.529 19.393,17.234 20.816,16.899 C21.899,16.645 23.128,16.213 24.199,15.845 C25.341,16.807 27.871,19.279 29.052,20.347 C29.184,20.48 29.442,20.742 29.757,21.048 C29.445,21.13 29.13,21.217 28.814,21.305 L28.815,21.307 C28.094,21.517 27.53,21.699 26.91,21.906 C27.307,22.155 27.779,22.473 27.779,22.473 C28.564,22.241 29.487,21.964 30.455,21.714 C30.656,21.902 30.856,22.083 31.039,22.241 L31.038,22.243 C31.048,22.252 31.061,22.262 31.072,22.271 C31.166,22.352 31.257,22.428 31.339,22.494 L31.357,22.494 C33.022,23.808 35.126,24.713 37.539,25.111 C39.641,25.457 41.772,25.028 43.752,24.302 C44.954,23.861 45.97,23.045 45.543,21.631 C45.086,20.102 42.749,19.786 41.449,19.647 C38.992,19.384 36.452,19.684 34.029,20.101 C33.754,20.145 33.474,20.198 33.189,20.256 C32.866,19.967 32.533,19.685 32.201,19.432 C30.865,18.31 27.966,15.827 26.621,14.779 C27.045,14.605 27.54,14.406 28.015,14.22 C28.12,14.187 28.225,14.148 28.338,14.108 C28.691,13.981 29.034,13.866 29.361,13.754 C30.641,14.81 32.535,16.057 35.112,16.605 C36.679,16.938 38.274,16.53 39.754,15.862 C40.654,15.457 41.41,14.708 41.094,13.407 C40.751,12.002 39.005,11.715 38.034,11.586 C36.197,11.343 34.299,11.619 32.489,12 C32.329,12.036 32.162,12.075 31.996,12.115 L31.997,12.115 C31.734,12.166 31.454,12.231 31.164,12.304 C30.961,12.137 30.819,12.019 30.819,12.019 C28.003,9.749 27.555,8.063 27.894,6.511 C27.993,6.056 26.798,7.407 26.713,8.823 C26.64,10.034 26.887,11.501 28.474,12.977 C28.524,13.022 28.579,13.074 28.633,13.121 C28.409,13.206 28.18,13.292 27.939,13.388 L27.935,13.385 C27.857,13.418 27.773,13.455 27.684,13.491 C27.136,13.716 26.547,13.969 25.911,14.254 C23.62,12.622 21.288,11.52 18.773,11.68 C17.542,11.759 12.071,12.942 13.96,15.912 C14.437,16.66 15.708,17.171 16.421,17.29 M38.226,20.905 C39.6,21.004 41.01,20.953 41.882,22.153 C42.351,22.804 42.264,23.647 41.818,24.237 C41.722,24.232 41.627,24.224 41.534,24.216 C40.729,24.147 39.935,23.969 39.158,23.76 C37.314,23.27 36.332,22.574 34.718,21.577 L34.717,21.577 C34.511,21.418 34.292,21.231 34.06,21.029 C35.535,20.854 36.85,20.804 38.226,20.905 M32.924,12.802 C33.861,12.687 34.728,12.661 35.626,12.74 C36.652,12.833 37.704,12.785 38.356,13.888 C38.709,14.483 38.643,15.262 38.309,15.804 C38.236,15.798 38.167,15.791 38.096,15.783 C37.495,15.719 36.901,15.555 36.32,15.365 C34.943,14.914 33.761,14.336 32.554,13.418 C32.414,13.312 32.216,13.157 32.005,12.99 C32.343,12.907 32.649,12.848 32.924,12.802 M16.728,12.599 C17.007,12.602 17.288,12.628 17.563,12.659 C18.549,12.767 19.518,13.079 20.456,13.457 C21.583,13.908 22.471,14.568 23.529,15.327 C22.496,15.662 21.294,16.024 20.231,16.124 C19.033,16.237 16.991,16.257 16.372,14.617 C16.117,13.931 16.31,13.105 16.728,12.599" id="Fill-3" fill="#FFFFFF" sketch:type="MSShapeGroup"></path>
            <path d="M46.8,41.752 C45.609,40.768 44.113,39.991 42.142,39.824 L41.631,41.259 C44.62,41.779 46.019,44.407 46.197,46.266 C46.38,48.175 45.676,50.347 43.689,50.765 C41.022,51.32 39.231,49.23 38.993,46.885 C38.825,45.239 39.587,42.828 40.161,41.273 C40.168,41.273 40.907,39.337 40.9,39.337 C41.548,37.653 42.196,35.965 42.845,34.276 C43.047,33.753 43.567,32.48 43.6,32.398 C44.063,31.256 44.712,29.768 45.725,29.779 C46.572,29.789 47.372,30.335 47.372,30.335 L48.266,28.82 C48.266,28.82 47.284,28.254 46.223,28.226 C44.313,28.175 42.779,28.818 41.625,30.196 C41.254,30.587 40.979,31.054 40.715,31.548 C39.849,33.159 39.302,34.991 38.646,36.695 C38.341,37.492 37.973,38.397 37.61,39.474 L33.273,39.474 C33.727,36.597 34.144,29.046 27.375,23.565 C24.824,21.496 21.621,19.583 17.114,19.581 C17.044,19.581 16.932,19.586 16.79,19.599 C15.357,19.664 13.942,19.915 12.593,20.419 C11.604,20.791 10.566,21.248 10.185,22.304 C9.69,23.685 11.593,24.571 12.572,24.887 C14.727,25.586 17.181,25.446 19.39,25.161 C20.502,25.015 21.224,24.899 22.245,24.664 C21.947,24.41 21.443,24.14 21.443,24.14 C20.063,24.36 18.757,24.357 17.173,24.127 C16.135,23.974 14.962,23.668 14.163,22.949 C13.888,22.701 13.699,22.377 13.62,22.019 C13.548,21.691 13.626,21.379 13.776,21.091 C13.86,20.964 13.955,20.848 14.065,20.745 C14.081,20.731 14.096,20.719 14.115,20.707 C14.145,20.704 14.176,20.701 14.207,20.697 L14.24,20.697 C17.38,20.767 20.316,22.145 22.922,23.835 L23.673,24.336 C23.725,24.371 23.777,24.409 23.829,24.442 C26.402,26.225 28.201,28.646 29.355,31.554 C30.582,34.643 32.264,42.372 25.145,47.674 C25.352,48.019 25.972,48.776 26.384,49.23 C28.869,47.979 31.468,45.267 32.983,41.192 L36.968,41.192 C35.885,43.852 35.354,46.407 36.317,48.696 C38.375,53.584 45.981,52.967 48.049,48.843 C49.184,46.579 48.66,43.291 46.8,41.752" id="Fill-4" fill="#FFFFFF" sketch:type="MSShapeGroup"></path>
            <path d="M39.385,62.609 C37.933,62.371 36.413,62.665 34.988,63 C33.904,63.253 32.676,63.687 31.604,64.052 C30.464,63.092 27.933,60.617 26.754,59.553 C26.621,59.418 26.362,59.156 26.048,58.85 C26.36,58.769 26.674,58.682 26.99,58.593 L26.99,58.591 C27.715,58.381 28.181,58.24 28.808,58.029 C28.312,57.726 27.933,57.441 27.933,57.441 C27.168,57.668 26.323,57.931 25.351,58.184 C25.147,57.994 24.948,57.816 24.764,57.654 L24.768,57.654 C24.756,57.644 24.743,57.638 24.732,57.628 C24.637,57.546 24.547,57.47 24.464,57.404 L24.448,57.404 C22.781,56.09 20.68,55.185 18.266,54.787 C16.163,54.441 14.033,54.869 12.053,55.597 C10.851,56.037 9.836,56.855 10.261,58.269 C10.718,59.798 13.056,60.109 14.354,60.251 C16.812,60.516 19.355,60.213 21.775,59.798 C22.049,59.751 22.329,59.699 22.616,59.644 C22.938,59.928 23.272,60.212 23.604,60.465 C24.939,61.591 27.84,64.072 29.183,65.119 C28.759,65.294 28.263,65.49 27.79,65.678 C27.687,65.714 27.58,65.75 27.467,65.792 C27.111,65.919 26.771,66.033 26.443,66.144 C25.165,65.089 23.27,63.841 20.693,63.292 C19.126,62.96 17.529,63.371 16.051,64.035 C15.154,64.441 14.393,65.189 14.711,66.492 C15.052,67.896 16.801,68.184 17.771,68.31 C19.607,68.557 21.505,68.279 23.316,67.898 C23.477,67.861 23.642,67.824 23.809,67.785 C23.809,67.783 23.809,67.783 23.806,67.783 C24.073,67.73 24.35,67.668 24.64,67.592 C24.845,67.761 24.988,67.88 24.988,67.88 C27.802,70.148 28.248,71.835 27.91,73.389 C27.811,73.842 29.006,72.49 29.091,71.074 C29.164,69.863 28.915,68.398 27.329,66.922 C27.281,66.876 27.226,66.826 27.172,66.777 C27.397,66.691 27.626,66.603 27.865,66.51 L27.87,66.513 C27.946,66.482 28.031,66.443 28.12,66.406 C28.669,66.183 29.256,65.929 29.894,65.646 C32.184,67.273 34.515,68.378 37.031,68.217 C38.264,68.138 43.732,66.956 41.845,63.986 C41.367,63.238 40.098,62.726 39.385,62.609 M17.579,58.994 C16.205,58.894 14.794,58.945 13.923,57.744 C13.453,57.094 13.54,56.253 13.989,55.658 C14.081,55.668 14.178,55.676 14.271,55.683 C15.076,55.753 15.87,55.932 16.647,56.136 C18.491,56.628 19.471,57.324 21.085,58.32 L21.087,58.32 C21.291,58.48 21.512,58.667 21.744,58.869 C20.27,59.047 18.954,59.094 17.579,58.994 M22.881,67.097 C21.944,67.212 21.077,67.238 20.179,67.158 C19.153,67.066 18.099,67.113 17.447,66.01 C17.096,65.415 17.161,64.636 17.496,64.092 C17.567,64.1 17.638,64.107 17.707,64.113 C18.31,64.182 18.902,64.345 19.485,64.533 C20.861,64.984 22.043,65.562 23.249,66.482 C23.393,66.588 23.59,66.742 23.798,66.912 C23.461,66.988 23.155,67.05 22.881,67.097 M39.076,67.299 C38.797,67.296 38.516,67.269 38.24,67.24 C37.256,67.131 36.287,66.818 35.348,66.441 C34.222,65.99 33.334,65.33 32.275,64.572 C33.309,64.236 34.511,63.874 35.574,63.773 C36.772,63.658 38.814,63.639 39.431,65.279 C39.688,65.967 39.495,66.793 39.076,67.299" id="Fill-5" fill="#FFFFFF" sketch:type="MSShapeGroup"></path>
            <path d="M45.544,12.852 C40.738,5.783 34.403,1.894 27.715,1.894 C21.025,1.894 14.694,5.783 9.886,12.852 C4.951,20.103 2.235,29.773 2.235,40.084 C2.235,50.394 4.951,60.065 9.886,67.316 C14.694,74.387 21.024,78.276 27.715,78.276 C34.403,78.276 40.738,74.387 45.544,67.316 C50.479,60.065 53.196,50.394 53.196,40.084 C53.196,29.773 50.479,20.103 45.544,12.852 M44.755,66.779 C40.131,73.575 34.079,77.319 27.715,77.319 C21.352,77.319 15.298,73.575 10.674,66.779 C5.847,59.682 3.19,50.201 3.19,40.084 C3.19,29.966 5.847,20.484 10.674,13.389 C15.298,6.592 21.352,2.849 27.715,2.849 C34.079,2.849 40.131,6.592 44.755,13.389 C49.581,20.484 52.24,29.966 52.24,40.084 C52.24,50.201 49.581,59.682 44.755,66.779" id="Fill-6" fill="#FFFFFF" sketch:type="MSShapeGroup"></path>
            <path d="M43.107,54.445 C41.188,54.197 39.177,54.506 37.295,54.859 C35.979,55.103 35.107,55.287 33.9,55.605 C34.237,55.884 34.756,56.164 34.756,56.164 C35.937,55.876 36.77,55.769 38.071,55.673 C39.65,55.554 42.353,55.531 43.168,57.256 C43.509,57.978 43.251,58.847 42.7,59.381 C42.329,59.374 41.96,59.348 41.594,59.315 C40.293,59.203 39.011,58.873 37.772,58.478 C36.271,57.998 34.8,57.334 33.387,56.531 L33.39,56.531 L32.957,56.277 C30.043,54.547 27.391,52.236 25.282,49.753 C23.499,47.652 22.255,45.276 21.133,42.795 C23.672,42.086 25.925,40.545 26.841,38.121 C28.254,33.641 24.546,29.814 20.42,28.73 C15.864,27.532 10.374,28.908 8.572,33.266 C7.435,36.021 8.349,39.136 11.71,41.4 L12.858,38.656 C10.974,37.087 9.996,34.881 10.846,32.817 C12.247,29.417 16.385,29.432 19.191,30.647 C22.433,32.056 24.43,35.466 23.415,38.687 C22.963,39.884 22.077,41.103 20.797,41.509 C19.65,41.875 18.351,41.708 17.171,41.323 C18.282,38.416 19.152,36.106 20.259,33.197 C19.584,32.654 18.43,32.062 17.531,31.806 C17.509,31.837 15.364,37.49 14.184,40.577 C13.463,42.471 12.742,44.361 12.017,46.249 C11.826,46.742 11.645,47.238 11.443,47.728 C10.981,48.871 10.33,50.36 9.319,50.347 C8.472,50.338 7.671,49.791 7.671,49.791 L6.776,51.307 C6.776,51.307 7.759,51.872 8.819,51.901 C11.722,51.979 13.639,50.409 14.92,47.196 C15.452,45.864 15.951,44.521 16.463,43.182 C16.791,43.216 17.123,43.242 17.461,43.251 C19.053,46.807 20.924,49.994 23.758,52.751 C25.437,54.386 27.442,55.992 29.635,57.308 L29.632,57.308 L30.099,57.583 L30.101,57.582 C33.185,59.35 36.609,60.516 39.995,60.344 C41.626,60.261 48.853,59.018 46.355,55.896 C45.726,55.109 44.047,54.57 43.107,54.445" id="Fill-7" fill="#FFFFFF" sketch:type="MSShapeGroup"></path>
        </g>
    </g>
</svg>