<svg width="200" height="29" viewBox="0 0 200 29" xmlns="http://www.w3.org/2000/svg" xmlns:sketch="http://www.bohemiancoding.com/sketch/ns"><title>love</title><desc>Created with Sketch.</desc><g sketch:type="MSLayerGroup" fill="none"><path d="M47.633.705c-2.488 0-4.729 1.135-6.298 2.947-1.57-1.812-3.811-2.947-6.3-2.947-4.745 0-8.593 4.123-8.593 9.21 0 1.367.226 2.681.62 3.937 0 0 .358 1.133.675 1.757 3.622 7.975 13.598 13.146 13.598 13.146s9.975-5.171 13.597-13.146c0 0 .467-1.063.675-1.757.377-1.261.62-2.57.62-3.937 0-5.087-3.848-9.21-8.594-9.21z" fill="#DD2827" sketch:type="MSShapeGroup"/><path d="M.567 24.451l5.53-7.621c-1.472-.405-2.641-1.131-3.508-2.18-.867-1.048-1.301-2.381-1.301-3.998 0-1.984.672-3.559 2.017-4.726 1.344-1.167 3.182-1.751 5.513-1.751h8.985v20.276h-3.507v-7.013h-4.488l-5.041 7.013h-4.2zm4.284-13.574c0 1.052.382 1.892 1.147 2.521s1.784.943 3.059.943h5.239v-6.914h-5.183c-1.341 0-2.386.303-3.136.908-.75.606-1.126 1.453-1.126 2.542z" fill="#fff" sketch:type="MSShapeGroup"/><path d="M65.211 16.886v-.056c0-1.433.339-2.76 1.018-3.98.678-1.221 1.628-2.194 2.849-2.92 1.221-.726 2.575-1.089 4.065-1.089 1.367 0 2.538.224 3.513.673.976.448 1.846 1.092 2.609 1.933l-2.177 2.348c-.594-.624-1.197-1.099-1.81-1.424-.613-.327-1.334-.49-2.164-.49-1.253 0-2.299.475-3.138 1.425-.839.95-1.258 2.101-1.258 3.453v.056c0 1.39.43 2.562 1.293 3.517.863.955 1.959 1.432 3.288 1.432.772 0 1.474-.165 2.106-.496.631-.331 1.249-.808 1.853-1.432l2.12 2.098c-.829.933-1.731 1.645-2.707 2.135-.976.49-2.161.735-3.557.735-1.489 0-2.84-.356-4.051-1.067-1.21-.712-2.156-1.673-2.834-2.884-.679-1.212-1.018-2.534-1.018-3.967" fill="#fff" sketch:type="MSShapeGroup"/><path d="M82.446 24.451v-15.284h7.847c1.527 0 2.748.343 3.662 1.03.914.687 1.371 1.613 1.371 2.78 0 1.624-.819 2.809-2.46 3.554 2.103.589 3.153 1.851 3.153 3.786 0 1.279-.504 2.288-1.512 3.026-1.009.739-2.385 1.108-4.129 1.108h-7.932zm3.436-8.908h3.591c.716 0 1.277-.177 1.682-.532.405-.355.609-.824.609-1.407 0-.544-.184-.979-.552-1.305-.367-.326-.929-.489-1.683-.489h-3.647v3.733zm0 6.136h3.973c.838 0 1.482-.177 1.93-.532.447-.354.671-.834.671-1.44 0-.577-.233-1.031-.699-1.362-.467-.331-1.157-.497-2.072-.497h-3.803v3.831z" fill="#fff" sketch:type="MSShapeGroup"/><path d="M98.678 16.815c0-1.439.35-2.768 1.053-3.986.703-1.219 1.682-2.188 2.941-2.908 1.259-.72 2.651-1.08 4.178-1.08 1.537 0 2.926.355 4.172 1.066 1.244.71 2.214 1.675 2.912 2.893.697 1.219 1.047 2.557 1.047 4.015 0 1.077-.208 2.104-.624 3.082-.414.977-.98 1.827-1.696 2.549-.717.722-1.584 1.296-2.601 1.721-1.018.425-2.107.637-3.266.637-1.527 0-2.913-.359-4.157-1.076-1.244-.718-2.215-1.686-2.913-2.904s-1.046-2.554-1.046-4.009zm3.507 0c0 1.362.442 2.527 1.329 3.496.885.969 1.998 1.453 3.336 1.453 1.385 0 2.502-.477 3.351-1.432.849-.955 1.273-2.127 1.273-3.517 0-1.37-.441-2.535-1.323-3.495-.881-.959-2.001-1.439-3.357-1.439-1.377 0-2.489.473-3.337 1.418-.849.946-1.272 2.118-1.272 3.516z" fill="#fff" sketch:type="MSShapeGroup"/><path d="M118.543 24.451v-15.284h3.436v10.25c2.638-3.752 5.051-7.168 7.239-10.25h3.337v15.284h-3.437v-10.195l-7.266 10.195h-3.309zm2.474-21.082l2.135-.41c.415 1.32 1.219 1.98 2.41 1.98 1.192 0 1.996-.66 2.412-1.98l2.12.41c-.189 1.245-.687 2.227-1.493 2.948-.808.722-1.821 1.082-3.039 1.082-1.227 0-2.244-.363-3.051-1.089-.808-.726-1.305-1.706-1.494-2.941z" fill="#fff" sketch:type="MSShapeGroup"/><path d="M143.81 21.411h1.778c1.236-2.276 1.855-5.732 1.855-10.368v-1.876h11.749v12.244h2.475l-.467 6.688h-3.223v-3.648h-10.616l-.328 3.648h-3.223v-6.688zm5.465 0h6.412v-9.205h-5.02v2.01c0 2.801-.464 5.199-1.392 7.195z" fill="#fff" sketch:type="MSShapeGroup"/><path d="M163.251 16.815c0-1.439.351-2.768 1.054-3.986.702-1.219 1.681-2.188 2.94-2.908 1.259-.72 2.652-1.08 4.178-1.08 1.537 0 2.927.355 4.172 1.066 1.244.71 2.215 1.675 2.912 2.893.697 1.219 1.047 2.557 1.047 4.015 0 1.077-.208 2.104-.623 3.082-.414.977-.981 1.827-1.697 2.549-.716.722-1.584 1.296-2.601 1.721-1.018.425-2.107.637-3.266.637-1.527 0-2.913-.359-4.157-1.076-1.244-.718-2.215-1.686-2.913-2.904-.697-1.218-1.046-2.554-1.046-4.009zm3.507 0c0 1.362.442 2.527 1.329 3.496.886.969 1.998 1.453 3.336 1.453 1.386 0 2.503-.477 3.351-1.432.849-.955 1.273-2.127 1.273-3.517 0-1.37-.441-2.535-1.322-3.495-.882-.959-2.001-1.439-3.358-1.439-1.377 0-2.489.473-3.337 1.418-.848.946-1.272 2.118-1.272 3.516z" fill="#fff" sketch:type="MSShapeGroup"/><path d="M183.116 24.451v-15.284h3.492l4.772 7.083 4.8-7.083h3.45v15.284h-3.506v-10.195l-4.801 6.858-4.771-6.801v10.138h-3.436" fill="#fff" sketch:type="MSShapeGroup"/></g></svg>