<?xml version="1.0" encoding="UTF-8" standalone="no"?>
<svg width="43px" height="43px" viewBox="0 0 43 43" version="1.1" xmlns="http://www.w3.org/2000/svg" xmlns:xlink="http://www.w3.org/1999/xlink" xmlns:sketch="http://www.bohemiancoding.com/sketch/ns">
    <!-- Generator: Sketch 3.3.3 (12072) - http://www.bohemiancoding.com/sketch -->
    <title>nav</title>
    <desc>Created with Sketch.</desc>
    <defs></defs>
    <g id="Page-1" stroke="none" stroke-width="1" fill="none" fill-rule="evenodd" sketch:type="MSPage">
        <g id="nav" sketch:type="MSLayerGroup" fill="#FFFFFF">
            <path d="M21.5,0.225 C33.098,0.225 42.5,9.627 42.5,21.225 C42.5,32.823 33.098,42.225 21.5,42.225 C9.902,42.225 0.5,32.823 0.5,21.225 C0.5,9.627 9.902,0.225 21.5,0.225 Z M21.5,2.225 C31.993,2.225 40.5,10.731 40.5,21.225 C40.5,31.718 31.993,40.225 21.5,40.225 C11.007,40.225 2.5,31.718 2.5,21.225 C2.5,10.731 11.007,2.225 21.5,2.225 Z" id="Fill-1" sketch:type="MSShapeGroup"></path>
            <path d="M9.5,13.225 L33.5,13.225 L33.5,15.225 L9.5,15.225 L9.5,13.225 Z" id="Fill-3" sketch:type="MSShapeGroup"></path>
            <path d="M9.5,20.225 L33.5,20.225 L33.5,22.225 L9.5,22.225 L9.5,20.225 Z" id="Fill-4" sketch:type="MSShapeGroup"></path>
            <path d="M9.5,27.225 L33.5,27.225 L33.5,29.225 L9.5,29.225 L9.5,27.225 Z" id="Fill-5" sketch:type="MSShapeGroup"></path>
        </g>
    </g>
</svg>