<?xml version="1.0" encoding="UTF-8" standalone="no"?>
<svg width="18px" height="25px" viewBox="0 0 18 25" version="1.1" xmlns="http://www.w3.org/2000/svg" xmlns:xlink="http://www.w3.org/1999/xlink" xmlns:sketch="http://www.bohemiancoding.com/sketch/ns">
    <!-- Generator: Sketch 3.3.3 (12072) - http://www.bohemiancoding.com/sketch -->
    <title>pdf</title>
    <desc>Created with Sketch.</desc>
    <defs></defs>
    <g id="Page-1" stroke="none" stroke-width="1" fill="none" fill-rule="evenodd" sketch:type="MSPage">
        <g id="noun_89474_cc" sketch:type="MSLayerGroup" transform="translate(-21.000000, 0.000000)" fill="#E62912">
            <g id="pdf" transform="translate(21.000000, 0.000000)" sketch:type="MSShapeGroup">
                <path d="M13.537963,15.5376543 C13.0435185,15.5376543 12.4348765,15.6030864 11.7296296,15.7305556 C10.7429012,14.6845679 9.71450617,13.1555556 8.98888889,11.6555556 C9.70864198,8.62345679 9.22993827,8.01358025 9.0712963,7.81049383 C8.90154321,7.59475309 8.65833333,7.47592593 8.38703704,7.47592593 C8.27376543,7.47592593 8.15308642,7.49691358 8.03055556,7.5382716 C7.7191358,7.64166667 7.48395062,7.86080247 7.35154321,8.17345679 C6.97067901,9.06358025 7.49320988,10.582716 8.03055556,11.7521605 C7.57037037,13.5808642 6.80092593,15.7700617 5.99012346,17.5453704 C3.94753086,18.4805556 2.86265432,19.3990741 2.76512346,20.2762346 C2.72993827,20.595679 2.80432099,21.0638889 3.36574074,21.4848765 C3.51944444,21.5993827 3.69938272,21.6604938 3.88703704,21.6604938 C4.35709877,21.6604938 4.83333333,21.2987654 5.38611111,20.5253086 C5.78796296,19.9604938 6.21975309,19.1901235 6.67006173,18.2345679 C8.11265432,17.6033951 9.89722222,17.032716 11.4265432,16.7141975 C12.2783951,17.5308642 13.0398148,17.9450617 13.6966049,17.9450617 C14.1787037,17.9450617 14.5929012,17.7237654 14.8925926,17.3030864 C15.2037037,16.8660494 15.2740741,16.4740741 15.1037037,16.1395062 C14.8944444,15.7342593 14.3820988,15.5376543 13.537963,15.5376543 L13.537963,15.5376543 Z M3.89783951,20.7496914 C3.64567901,20.5558642 3.65987654,20.4262346 3.66574074,20.3759259 C3.69969136,20.0765432 4.16820988,19.5453704 5.31944444,18.8981481 C4.44753086,20.5108025 3.97839506,20.7246914 3.89783951,20.7496914 L3.89783951,20.7496914 Z M8.18487654,8.52993827 C8.22098765,8.44567901 8.2632716,8.41635802 8.31574074,8.39938272 C8.33981481,8.39135802 8.3558642,8.38734568 8.36790123,8.38518519 C8.45030864,8.50679012 8.54351852,8.99104938 8.36790123,10.1311728 C8.1558642,9.46944444 8.0462963,8.85432099 8.18487654,8.52993827 L8.18487654,8.52993827 Z M7.20216049,17.0333333 C7.74876543,15.7302469 8.25709877,14.2904321 8.64290123,12.9574074 C9.24753086,14.0444444 9.97530864,15.1003086 10.7027778,15.9453704 C9.55339506,16.2157407 8.32777778,16.5962963 7.20216049,17.0333333 L7.20216049,17.0333333 Z M14.1527778,16.7756173 C13.9882716,17.008642 13.8212963,17.037963 13.6962963,17.037963 C13.4067901,17.037963 13.0194444,16.8527778 12.5811728,16.5166667 C12.9429012,16.4694444 13.2666667,16.4453704 13.537963,16.4444444 C14.0185185,16.4444444 14.2114198,16.5175926 14.2774691,16.5530864 C14.2657407,16.5904321 14.2354938,16.6626543 14.1527778,16.7756173 L14.1527778,16.7756173 Z" id="Shape"></path>
                <path d="M16.1382716,4.44290123 L13.15,1.45493827 C12.35,0.65462963 10.7694444,0 9.63765432,0 L2.36574074,0 C1.23395062,0 0.308024691,0.925925926 0.308024691,2.05771605 L0.308024691,22.6339506 C0.308024691,23.7657407 1.23395062,24.6916667 2.36574074,24.6916667 L15.5354938,24.6916667 C16.667284,24.6916667 17.5932099,23.7657407 17.5932099,22.6339506 L17.5932099,7.95524691 C17.5932099,6.82345679 16.9385802,5.24290123 16.1382716,4.44290123 L16.1382716,4.44290123 Z M11.6160494,1.61574074 C11.9348765,1.78703704 12.2209877,1.98055556 12.4228395,2.18240741 L15.4108025,5.17006173 C15.5808642,5.34012346 15.7450617,5.57098765 15.8953704,5.82932099 L13.1592593,5.82932099 C12.3083333,5.82932099 11.6160494,5.13703704 11.6160494,4.28611111 L11.6160494,1.61574074 L11.6160494,1.61574074 Z M16.5645062,22.633642 C16.5645062,23.2009259 16.1027778,23.6626543 15.5354938,23.6626543 L2.36574074,23.6626543 C1.79845679,23.6626543 1.33703704,23.2009259 1.33703704,22.633642 L1.33703704,2.05771605 C1.33703704,1.4904321 1.79845679,1.02901235 2.36574074,1.02901235 L9.63765432,1.02901235 C9.91697531,1.02901235 10.2484568,1.09228395 10.587037,1.19259259 L10.587037,4.28641975 C10.587037,5.70462963 11.7410494,6.85833333 13.1592593,6.85833333 L16.358642,6.85833333 C16.487037,7.24845679 16.5645062,7.63518519 16.5645062,7.95555556 L16.5645062,22.633642 L16.5645062,22.633642 Z" id="Shape"></path>
            </g>
        </g>
    </g>
</svg>