<?xml version="1.0" encoding="UTF-8" standalone="no"?>
<svg width="151px" height="151px" viewBox="0 0 151 151" version="1.1" xmlns="http://www.w3.org/2000/svg" xmlns:xlink="http://www.w3.org/1999/xlink" xmlns:sketch="http://www.bohemiancoding.com/sketch/ns">
    <!-- Generator: Sketch 3.3.3 (12072) - http://www.bohemiancoding.com/sketch -->
    <title>pencil</title>
    <desc>Created with Sketch.</desc>
    <defs></defs>
    <g id="Page-1" stroke="none" stroke-width="1" fill="none" fill-rule="evenodd" sketch:type="MSPage">
        <g id="noun_78077_cc" sketch:type="MSLayerGroup" transform="translate(-51.000000, 0.000000)" fill="#FFFFFF">
            <g id="Group" transform="translate(51.000000, 0.000000)" sketch:type="MSShapeGroup">
                <g id="pencil">
                    <path d="M147.5,35.1 L116.3,3.7 C112.6,-3.55271368e-15 106.8,-3.55271368e-15 103.1,3.7 L81.1,26.1 C80.9,26.3 80.9,26.3 80.9,26.6 L20.4,87.3 C20.2,87.5 19.9,88 19.7,88.5 L0.7,146.6 C0.5,147.6 0.7,148.8 1.4,149.6 C2.5,150.7 3.2,150.9 3.9,150.9 C4.1,150.9 4.4,150.9 4.6,150.7 L64.2,132.7 C64.7,132.5 65.2,132.2 65.4,132 L125.6,70.8 C125.8,70.6 125.8,70.6 125.8,70.3 L147.5,48.3 C151.2,44.6 151.2,38.8 147.5,35.1 L147.5,35.1 Z M8.6,143.5 L24.8,93.2 L36.8,95.9 L36.8,112.1 C36.8,113.8 38,115.1 39.8,115.1 L55.5,115.1 L59.2,128.3 L8.6,143.5 L8.6,143.5 Z M57.6342749,109.532564 L42.9,109 L43,92.4 L28.9,88 L108,8 C109.2,6.8 111.5,6.8 112.7,8 L116.814234,12.1405226 L116.814234,12.1405226 C116.665281,12.2413517 116.526263,12.3611104 116.4,12.5 L58.4,70.5 C57.3,71.5 57.4,73.3 58.6,74.5 C59.7,75.7 61.5,75.8 62.6,74.7 L120.6,16.7 C120.733999,16.5781826 120.850191,16.4444936 120.948756,16.3014638 L144,39.5 C145.2,40.7 145.2,43 144,44.2 L64.6,125 L60.5122361,112.656556 C61.266198,112.71969 62.0278039,112.472196 62.6,111.9 L120.6,53.9 C121.7,52.9 121.6,51.1 120.4,49.9 C119.2,48.7 117.4,48.6 116.4,49.7 L58.4,107.7 C57.8734124,108.178716 57.6218276,108.840767 57.6342749,109.532564 Z" id="Shape"></path>
                </g>
            </g>
        </g>
    </g>
</svg>