<?xml version="1.0" encoding="UTF-8" standalone="no"?>
<svg width="15px" height="16px" viewBox="0 0 15 16" version="1.1" xmlns="http://www.w3.org/2000/svg" xmlns:xlink="http://www.w3.org/1999/xlink" xmlns:sketch="http://www.bohemiancoding.com/sketch/ns">
    <!-- Generator: Sketch 3.3.3 (12072) - http://www.bohemiancoding.com/sketch -->
    <title>profile</title>
    <desc>Created with Sketch.</desc>
    <defs></defs>
    <g id="Page-1" stroke="none" stroke-width="1" fill="none" fill-rule="evenodd" sketch:type="MSPage">
        <path d="M9.4792,10.9656162 L4.658,10.9656162 C4.2092,10.9656162 3.774,11.0492496 3.3728,11.2100829 C2.1182,11.6990162 1.2886,12.8666662 1.2886,14.1533328 L1.2886,14.6583494 L12.8452,14.6583494 L12.8452,14.1533328 C12.8452,13.0886161 12.2774,12.0882329 11.3424,11.4995829 C11.1656,11.3869995 10.9684,11.2840662 10.7644,11.2036496 C10.5638,11.1264496 10.353,11.0685496 10.1388,11.0267329 C9.9246,10.9849162 9.7036,10.9656162 9.4792,10.9656162 L9.4792,10.9656162 Z M9.877,9.75936628 L9.877,9.75936628 C10.047,9.77544961 10.2204,9.79796628 10.387,9.83013294 C10.6828,9.88481628 10.9752,9.96844961 11.2574,10.0810329 C12.9812,10.7533162 14.1338,12.3841662 14.1338,14.1533328 L14.1338,15.2662994 C14.1338,15.607266 13.8448,15.877466 13.4912,15.877466 L0.646,15.877466 C0.289,15.877466 0,15.607266 0,15.2662994 L0,14.1533328 C0,12.3809495 1.1424,10.7629662 2.8764,10.0842496 C3.315,9.91054961 3.7808,9.80118295 4.2568,9.76258295 C2.5772,8.82974965 1.5266,7.08953305 1.5266,5.24638313 C1.5266,2.35459991 4.0426,0 7.0686,0 C10.1218,0 12.6106,2.38033324 12.6106,5.24638313 C12.6106,7.08953305 11.5668,8.82331632 9.877,9.75936628 L9.877,9.75936628 Z M7.0686,1.22233329 L7.0686,1.22233329 C5.3618,1.22233329 3.791,2.20341658 3.1348,3.70238319 C2.9274,4.1816665 2.8152,4.70598315 2.8152,5.24638313 C2.8152,6.85149973 3.8454,8.32794967 5.4128,8.95198298 C6.4668,9.3733663 7.6704,9.37014963 8.721,8.95198298 C10.2952,8.324733 11.3186,6.85149973 11.3186,5.24638313 C11.3186,3.04618321 9.4248,1.22233329 7.0686,1.22233329 L7.0686,1.22233329 Z" id="profile" fill="#FFFFFF" sketch:type="MSShapeGroup"></path>
    </g>
</svg>