<?xml version="1.0" encoding="UTF-8" standalone="no"?>
<svg width="46px" height="46px" viewBox="0 0 46 46" version="1.1" xmlns="http://www.w3.org/2000/svg" xmlns:xlink="http://www.w3.org/1999/xlink" xmlns:sketch="http://www.bohemiancoding.com/sketch/ns">
    <!-- Generator: Sketch 3.3.3 (12072) - http://www.bohemiancoding.com/sketch -->
    <title>rotate1</title>
    <desc>Created with Sketch.</desc>
    <defs></defs>
    <g id="Page-1" stroke="none" stroke-width="1" fill="none" fill-rule="evenodd" sketch:type="MSPage">
        <path d="M23.17,45.943 C10.763,45.943 0.67,35.85 0.67,23.443 C0.67,11.036 10.763,0.943 23.17,0.943 C35.577,0.943 45.67,11.036 45.67,23.443 C45.67,35.85 35.577,45.943 23.17,45.943 L23.17,45.943 Z M23.128002,15.7242584 C23.1418494,15.7254118 23.1558564,15.726 23.17,15.726 C28.221,15.726 32.33,19.836 32.33,24.889 C32.33,29.94 28.221,34.05 23.17,34.05 C18.118,34.05 14.008,29.94 14.008,24.889 C14.008,24.612 13.784,24.389 13.508,24.389 C13.231,24.389 13.008,24.612 13.008,24.889 C13.008,30.492 17.566,35.05 23.17,35.05 C28.773,35.05 33.33,30.492 33.33,24.889 C33.33,19.3588951 28.8923861,14.8464129 23.3910921,14.72837 L25.237,12.67 C25.422,12.464 25.405,12.148 25.199,11.964 C24.995,11.78 24.678,11.797 24.493,12.002 L21.769,15.039 C21.598,15.229 21.598,15.517 21.769,15.707 L24.493,18.744 C24.592,18.854 24.728,18.91 24.865,18.91 C24.984,18.91 25.103,18.868 25.199,18.782 C25.405,18.598 25.422,18.282 25.237,18.076 L23.128002,15.7242584 Z M23.17,1.943 C11.315,1.943 1.67,11.588 1.67,23.443 C1.67,35.298 11.315,44.943 23.17,44.943 C35.025,44.943 44.67,35.298 44.67,23.443 C44.67,11.588 35.025,1.943 23.17,1.943 Z" id="rotate1" fill="#FFFFFF" sketch:type="MSShapeGroup" transform="translate(23.170000, 23.443000) scale(-1, 1) translate(-23.170000, -23.443000) "></path>
    </g>
</svg>