<svg width="88" height="25" viewBox="0 0 88 25" xmlns="http://www.w3.org/2000/svg" xmlns:sketch="http://www.bohemiancoding.com/sketch/ns"><title>spectrum</title><desc>Created with Sketch.</desc><g sketch:type="MSLayerGroup" fill="none"><path d="M49.334 8.324h.009v2.389c0 .673.287.997.934.997.539 0 1.015-.135 1.437-.368v2.335c-.611.368-1.32.593-2.299.593-1.778 0-2.981-.709-2.981-3.08v-2.9h.956-.956v-1.949h-1.221v-2.487h1.221v-2.622h2.9v2.613h2.407v2.487h-2.407v1.993zm4.068 5.774h2.909v-3.789c0-.629.081-1.167.224-1.625-1.042-.063-2.083-.126-3.134-.18v5.594zm2.909-8.189v-2.065h-2.909v4.66c1.051.054 2.092.117 3.134.18.431-1.338 1.455-1.984 2.891-1.984h.153v-3.044h-.198c-1.598 0-2.496.898-3.071 2.254zm-15.786 5.909c-1.58 0-2.595-1.257-2.595-2.829v-.036c0-.207.018-.404.054-.602-.97.036-1.94.072-2.9.117-.018.171-.027.35-.027.53v.036c0 2.927 2.254 5.298 5.334 5.298 2.047 0 3.188-.781 4.184-1.877l-1.706-1.724c-.7.673-1.365 1.087-2.344 1.087zm-.117-5.657c1.033 0 1.679.44 2.335 1.122l1.778-1.913c-.961-1.069-2.164-1.724-4.095-1.724-2.945 0-5.091 2.128-5.343 4.804.961-.045 1.931-.081 2.9-.117.233-1.212 1.176-2.173 2.424-2.173zm-6.349 2.353c-3.403.18-6.735.449-10.003.79.135 2.981 2.353 5.02 5.343 5.02 1.859 0 3.233-.727 4.184-1.913l-1.661-1.473c-.799.745-1.509 1.051-2.487 1.051-1.302 0-2.218-.691-2.505-2.002h7.13c.018-.269.036-.539.036-.763l-.027-.593-.009-.117zm-4.948-4.858c-2.981 0-5.064 2.407-5.064 5.334v.036l.009.278c3.26-.35 6.6-.611 10.003-.79-.233-2.613-1.805-4.858-4.948-4.858zm34.706 5.617v.292c0 1.374.647 2.083 1.76 2.083 1.078 0 1.778-.673 1.805-1.993.979.117 1.949.242 2.909.368v4.077h-2.909v-1.455c-.664.862-1.527 1.643-2.999 1.643-2.191 0-3.475-1.455-3.475-3.807v-6.627h2.909v5.415c-.961-.09-1.931-.18-2.909-.26v.004l2.909.26zm-36.924-1.1c.224-1.32 1.015-2.182 2.218-2.182 1.221 0 1.984.88 2.164 2.182h-4.382zm40.498 1.392v.09c.979.117 1.949.233 2.909.368v-6.169h-2.909v5.711zm-61.295 4.723c2.46 0 4.292-1.087 4.777-3.053-3.08.584-6.07 1.239-8.962 1.984 1.302.709 2.748 1.069 4.184 1.069zm.673-8.198c-2.317-.593-2.882-.88-2.882-1.76v-.036c0-.647.593-1.167 1.724-1.167s2.29.494 3.475 1.32l1.527-2.218c-1.356-1.087-3.017-1.697-4.966-1.697-2.73 0-4.687 1.607-4.687 4.032v.036c0 2.658 1.742 3.403 4.436 4.086 2.236.575 2.694.961 2.694 1.706v.036c0 .781-.727 1.266-1.931 1.266-1.527 0-2.793-.629-3.996-1.625l-1.742 2.083c.467.413.97.772 1.5 1.06 2.882-.745 5.873-1.401 8.962-1.984.081-.341.135-.7.135-1.087v-.036c0-2.335-1.536-3.304-4.247-4.014zm77.898 8.01h2.909v-.691c-.961-.26-1.922-.512-2.909-.745v1.437zm-12.733 0h2.909v-3.403c-.961-.153-1.931-.305-2.909-.449v3.852zm12.185-10.443c-1.401 0-2.469.575-3.367 1.625-.539-1.033-1.553-1.625-2.891-1.625-1.473 0-2.353.781-3.017 1.643v-1.455h-2.909v6.393c.979.144 1.949.296 2.909.449v-2.317c0-1.374.673-2.083 1.76-2.083s1.697.709 1.697 2.083v2.918c.979.18 1.949.377 2.9.584v-3.502c0-1.374.673-2.083 1.76-2.083s1.697.709 1.697 2.083v4.283c.979.233 1.949.485 2.909.745v-5.98c.009-2.46-1.293-3.762-3.448-3.762zm-5.819 10.443h2.9v-2.218c-.961-.207-1.922-.404-2.9-.584v2.802zm-60.675-2.281c-.916 0-1.733-.521-2.164-1.383-1.069.171-2.137.341-3.188.53v6.187h2.909v-4.4c.691.826 1.643 1.527 3.188 1.527 2.326 0 4.472-1.724 4.651-4.867-.997.117-1.993.233-2.981.359-.287 1.266-1.275 2.047-2.416 2.047zm.745-8.162c-1.509 0-2.487.709-3.188 1.661v-1.473h-2.909v7.121c1.051-.189 2.119-.368 3.188-.53-.207-.413-.323-.898-.323-1.446v-.036c0-1.697 1.131-2.829 2.487-2.829s2.505 1.131 2.505 2.829v.036c0 .278-.036.539-.09.781.988-.126 1.976-.242 2.981-.359-.009.198.018-.072.018-.422v-.036c0-3.421-2.281-5.298-4.669-5.298z" id="Shape" fill="#838383" sketch:type="MSShapeGroup"/><path d="M53.206 23.178c-.09.233-.207.44-.35.611-.144.18-.305.332-.485.449-.18.117-.35.216-.53.278-.305.117-.647.18-1.024.207-.377.027-.745.036-1.096.036h-4.158v-.117c.198-.036.395-.081.575-.162.18-.072.323-.171.44-.296l.099-.216.063-.314.045-.377.009-.395.009-.458.009-.638.009-.709v-1.868l-.009-.539-.009-.638-.009-.44c-.009-.153-.018-.287-.045-.431l-.072-.368c-.027-.108-.063-.189-.117-.233-.117-.126-.242-.216-.359-.26-.117-.045-.287-.081-.503-.099v-.117h4.059c.305 0 .593.018.871.054.278.036.548.099.799.198.413.153.745.386 1.015.7.269.314.395.709.395 1.194 0 .53-.171.961-.512 1.284-.341.323-.79.548-1.329.656v.045c.287.036.575.108.853.216s.53.251.754.44c.224.189.395.404.53.656.135.251.198.539.198.862.009.296-.036.566-.126.79m-2.056-6.007c-.207-.314-.458-.539-.763-.673-.359-.162-.826-.242-1.383-.242-.171 0-.323.009-.458.027l-.314.063-.027.135-.018.153-.009.224-.018.35c-.009.278-.018.593-.018.925l-.009.961v1.158h.673l.449-.009c.727-.036 1.275-.242 1.643-.611.368-.368.557-.826.557-1.374 0-.413-.099-.772-.305-1.087m.664 4.705c-.081-.207-.18-.395-.314-.566-.135-.171-.287-.323-.467-.449-.18-.126-.377-.224-.593-.296-.18-.054-.35-.099-.521-.117-.171-.018-.377-.036-.611-.036h-1.167v1.508l.009.62.009.485c.009.305.018.557.045.754.018.198.081.359.18.485.072.09.18.162.323.224.144.063.35.09.629.09.233 0 .485-.018.763-.045.269-.036.539-.117.79-.251.341-.18.602-.413.781-.709.189-.296.278-.647.278-1.051-.018-.224-.054-.44-.135-.647zm5.801-1.841c-.108.117-.224.18-.359.18-.126 0-.233-.018-.305-.063l-.198-.153-.18-.153c-.063-.045-.153-.063-.269-.063-.099 0-.189.036-.287.099-.099.063-.18.153-.26.26-.081.108-.153.224-.216.359l-.171.377v3.475c.027.072.072.126.153.171.081.036.171.072.269.081l.314.036.287.027v.117h-2.703v-.117c.189-.018.341-.054.476-.108.135-.054.198-.153.198-.278v-4.077l-.018-.144-.099-.108-.251-.153-.287-.153v-.072l1.58-.611h.072l-.027 1.679h.027l.189-.422c.09-.189.198-.368.341-.566.135-.189.296-.35.494-.485s.413-.207.664-.207c.198 0 .368.063.512.18.144.117.216.269.216.458 0 .162-.054.314-.162.431zm5.531 4.005c-.063.144-.153.269-.251.395-.108.117-.224.207-.368.26-.144.063-.296.09-.467.09-.269 0-.521-.081-.727-.242-.216-.162-.323-.44-.323-.844l-.027-.009c-.063.108-.153.216-.26.35-.108.126-.233.251-.386.359-.153.117-.314.207-.494.269-.18.072-.377.108-.593.108-.126 0-.26-.018-.395-.054-.135-.036-.251-.099-.359-.189-.108-.09-.198-.216-.26-.35-.072-.144-.099-.323-.099-.53 0-.224.09-.44.269-.647.18-.207.404-.395.664-.566.269-.171.503-.314.709-.431l.539-.305.404-.216.296-.162v-1.239l-.045-.117c-.027-.063-.072-.126-.144-.189s-.162-.126-.278-.18c-.126-.054-.278-.081-.476-.081-.126 0-.251.027-.377.063-.126.045-.233.099-.332.171-.099.072-.171.135-.224.207l-.081.171v.548c0 .117-.063.216-.18.305-.117.09-.242.135-.377.135-.126 0-.242-.045-.332-.135-.09-.09-.135-.198-.135-.323 0-.099.027-.189.072-.26.045-.081.108-.153.18-.216l.233-.171.224-.135.638-.35c.216-.117.422-.207.62-.287.198-.081.377-.144.539-.189.162-.045.296-.072.404-.072.207 0 .404.054.593.162.189.108.314.242.395.404.036.054.054.153.063.296l.009.413-.009.781-.009.673-.009.664-.009.754c0 .359.063.602.189.718.126.117.269.18.431.18.189 0 .323-.036.413-.117.09-.081.153-.18.18-.296h.072c-.009.126-.045.278-.108.422zm-2.128-2.541c-.144.108-.323.216-.539.332-.216.117-.431.242-.629.377-.207.135-.386.287-.53.449-.153.162-.224.35-.224.557 0 .207.072.395.216.566.144.171.332.251.566.251.207 0 .395-.027.557-.072.162-.045.305-.144.449-.278.099-.09.144-.198.144-.341v-1.841h-.009zm5.747 3.278v-.135c.216-.018.386-.045.521-.081.126-.036.189-.117.189-.242v-3.035c0-.467-.09-.844-.26-1.122-.171-.278-.476-.431-.889-.431-.26 0-.485.054-.664.171-.18.117-.377.278-.593.494v3.951l.081.18.144.081.189.027.224.027v.117h-2.326v-.117c.189-.018.341-.054.476-.108.135-.054.198-.144.198-.278v-4.149l-.018-.144-.099-.108-.251-.135-.287-.135v-.072l1.58-.566h.072v1.302l.027.009c.09-.135.198-.278.332-.44.135-.153.278-.296.449-.431.171-.126.35-.233.557-.323.207-.09.413-.126.629-.126.467 0 .817.171 1.069.521.251.341.377.79.377 1.338v3.547c0 .054.027.108.081.144l.189.09.233.045.233.027v.108h-2.46zm7.202.036h-.072v-1.203h-.009c-.233.404-.512.7-.826.889-.314.189-.709.287-1.185.287-.296 0-.584-.063-.862-.18-.278-.117-.521-.296-.745-.539-.216-.242-.386-.548-.521-.907-.126-.359-.189-.772-.189-1.239 0-.413.072-.808.224-1.167.153-.359.359-.673.629-.943.269-.269.593-.485.97-.638.377-.153.799-.233 1.257-.233.242 0 .467.018.682.063.216.036.404.09.584.144l-.018-.494-.009-.638v-1.024l-.988-.377v-.072l1.913-.53h.099v7.821l.359.171.494.207v.081l-1.787.521zm-.081-4.535c-.18-.332-.404-.593-.673-.799-.269-.198-.53-.296-.754-.296-.314 0-.584.072-.799.216-.224.144-.404.341-.548.575-.144.242-.251.521-.323.835-.072.314-.099.638-.099.961 0 .323.036.647.117.961.081.314.198.584.359.817.162.242.359.431.602.575.233.144.512.216.826.216.332 0 .611-.117.853-.341.233-.224.386-.512.449-.853v-2.864h-.009zm6.286 3.547c-.126.224-.296.413-.503.557-.207.144-.449.251-.718.314-.269.063-.557.099-.853.099-.35 0-.682-.036-.997-.099-.314-.063-.602-.162-.871-.278v-1.589h.099c.063.189.144.395.242.611.099.216.216.413.35.593.135.18.296.332.494.449.189.117.422.18.682.18.386 0 .691-.108.916-.332.224-.224.341-.557.341-1.015 0-.251-.081-.458-.233-.62-.153-.162-.368-.278-.647-.332-.216-.036-.422-.081-.62-.135-.198-.045-.377-.099-.539-.153-.305-.108-.548-.287-.736-.539-.189-.26-.278-.566-.278-.934 0-.251.054-.476.153-.673.108-.198.242-.377.422-.521.18-.144.377-.251.611-.332.233-.072.485-.117.745-.117.341 0 .638.027.889.09.26.063.503.135.736.224l.144 1.491-.099.027c-.117-.242-.224-.467-.341-.664-.117-.207-.233-.377-.377-.53-.135-.144-.287-.26-.467-.341-.171-.081-.368-.117-.602-.117-.135 0-.269.027-.404.072s-.251.117-.35.216c-.099.09-.18.207-.242.35-.063.144-.099.305-.099.485 0 .296.081.512.251.638.171.126.377.224.638.287l.575.126.539.126c.359.09.664.278.925.557.251.278.377.629.377 1.042.027.296-.036.566-.153.79z" fill="#666" sketch:type="MSShapeGroup"/></g></svg>