<?xml version="1.0" encoding="UTF-8" standalone="no"?>
<svg width="549px" height="136px" viewBox="0 0 549 136" version="1.1" xmlns="http://www.w3.org/2000/svg" xmlns:xlink="http://www.w3.org/1999/xlink" xmlns:sketch="http://www.bohemiancoding.com/sketch/ns">
    <!-- Generator: Sketch 3.3.3 (12072) - http://www.bohemiancoding.com/sketch -->
    <title>title-description-mobile</title>
    <desc>Created with Sketch.</desc>
    <defs></defs>
    <g id="Page-1" stroke="none" stroke-width="1" fill="none" fill-rule="evenodd" sketch:type="MSPage">
        <g id="title-description-mobile" sketch:type="MSLayerGroup">
            <path d="M0.689,59.082 L10.169,47.758 C16.226,52.586 22.985,55.133 30.096,55.133 C34.661,55.133 37.119,53.553 37.119,50.744 C37.119,48.197 35.1,46.793 26.76,44.861 C13.681,41.877 3.585,38.19 3.585,25.373 C3.585,13.962 12.627,5.711 27.375,5.711 C37.821,5.711 45.985,8.519 52.657,13.874 L44.142,25.9 C38.523,21.951 32.378,19.844 26.936,19.844 C22.81,19.844 20.791,21.6 20.791,23.969 C20.791,26.779 22.898,28.008 31.413,29.94 C45.546,33.012 54.324,37.576 54.324,49.252 C54.324,61.805 44.405,69.266 29.481,69.266 C18.596,69.266 8.238,65.842 0.689,59.082" id="Fill-1" fill="#FFFFFF" sketch:type="MSShapeGroup"></path>
            <path d="M61.608,4.131 L78.287,4.131 L78.287,27.217 C81.36,23.268 85.749,19.668 92.508,19.668 C102.604,19.668 108.661,26.34 108.661,37.137 L108.661,68.213 L91.981,68.213 L91.981,42.492 C91.981,37.312 89.26,34.504 85.31,34.504 C81.272,34.504 78.287,37.312 78.287,42.492 L78.287,68.213 L61.608,68.213 L61.608,4.131" id="Fill-2" fill="#FFFFFF" sketch:type="MSShapeGroup"></path>
            <path d="M114.891,54.43 C114.891,44.598 122.352,39.508 133.501,39.508 C137.89,39.508 142.192,40.385 144.913,41.35 L144.913,40.561 C144.913,35.644 141.841,32.836 135.433,32.836 C130.429,32.836 126.566,33.801 122.352,35.469 L118.929,23.705 C124.284,21.512 129.99,20.019 138.154,20.019 C146.669,20.019 152.462,22.039 156.237,25.813 C159.836,29.324 161.329,34.24 161.329,40.912 L161.329,68.213 L144.825,68.213 L144.825,63.297 C141.577,66.897 137.1,69.266 130.868,69.266 C121.826,69.266 114.891,64.086 114.891,54.43 L114.891,54.43 Z M145.089,51.006 L145.089,48.813 C143.421,48.109 141.051,47.584 138.593,47.584 C133.765,47.584 130.956,49.953 130.956,53.641 C130.956,56.889 133.414,58.82 136.837,58.82 C141.665,58.82 145.089,55.748 145.089,51.006 L145.089,51.006 Z" id="Fill-3" fill="#FFFFFF" sketch:type="MSShapeGroup"></path>
            <path d="M169.842,20.721 L186.521,20.721 L186.521,30.289 C189.242,23.793 193.632,19.58 201.532,19.932 L201.532,37.488 L200.127,37.488 C191.437,37.488 186.521,42.492 186.521,53.465 L186.521,68.213 L169.842,68.213 L169.842,20.721" id="Fill-4" fill="#FFFFFF" sketch:type="MSShapeGroup"></path>
            <path d="M204.604,44.512 C204.604,30.641 214.523,19.668 228.569,19.668 C244.984,19.668 252.534,31.695 252.534,45.652 C252.534,46.705 252.534,47.934 252.446,49.076 L220.668,49.076 C221.985,54.254 225.76,56.889 230.939,56.889 C234.889,56.889 238.049,55.396 241.473,52.06 L250.69,59.697 C246.125,65.49 239.542,69.353 230.061,69.353 C215.138,69.353 204.604,59.434 204.604,44.512 L204.604,44.512 Z M236.908,40.561 C236.294,35.293 233.221,31.957 228.657,31.957 C224.268,31.957 221.283,35.381 220.405,40.561 L236.908,40.561 L236.908,40.561 Z" id="Fill-5" fill="#FFFFFF" sketch:type="MSShapeGroup"></path>
            <path d="M286.854,53.465 L286.854,34.152 L281.236,34.152 L281.236,20.721 L286.854,20.721 L286.854,8.695 L303.533,8.695 L303.533,20.721 L314.594,20.721 L314.594,34.152 L303.533,34.152 L303.533,50.217 C303.533,53.553 305.025,54.957 308.098,54.957 C310.293,54.957 312.399,54.342 314.418,53.377 L314.418,66.457 C311.434,68.125 307.483,69.178 302.831,69.178 C292.824,69.178 286.854,64.789 286.854,53.465" id="Fill-6" fill="#FFFFFF" sketch:type="MSShapeGroup"></path>
            <path d="M321.791,4.131 L338.471,4.131 L338.471,27.217 C341.543,23.268 345.932,19.668 352.691,19.668 C362.786,19.668 368.844,26.34 368.844,37.137 L368.844,68.213 L352.165,68.213 L352.165,42.492 C352.165,37.312 349.443,34.504 345.493,34.504 C341.455,34.504 338.471,37.312 338.471,42.492 L338.471,68.213 L321.791,68.213 L321.791,4.131" id="Fill-7" fill="#FFFFFF" sketch:type="MSShapeGroup"></path>
            <path d="M375.513,44.512 C375.513,30.641 385.432,19.668 399.478,19.668 C415.894,19.668 423.442,31.695 423.442,45.652 C423.442,46.705 423.442,47.934 423.354,49.076 L391.577,49.076 C392.894,54.254 396.668,56.889 401.848,56.889 C405.798,56.889 408.958,55.396 412.382,52.06 L421.599,59.697 C417.034,65.49 410.45,69.353 400.97,69.353 C386.047,69.353 375.513,59.434 375.513,44.512 L375.513,44.512 Z M407.817,40.561 C407.202,35.293 404.13,31.957 399.565,31.957 C395.176,31.957 392.191,35.381 391.314,40.561 L407.817,40.561 L407.817,40.561 Z" id="Fill-8" fill="#FFFFFF" sketch:type="MSShapeGroup"></path>
            <path d="M500.375,1.894 C494.273,1.894 488.776,4.677 484.928,9.119 C481.078,4.677 475.583,1.894 469.479,1.894 C457.841,1.894 448.406,12.004 448.406,24.479 C448.406,27.832 448.96,31.055 449.926,34.135 C449.926,34.135 450.805,36.914 451.58,38.443 C460.463,58 484.928,70.684 484.928,70.684 C484.928,70.684 509.391,58 518.273,38.443 C518.273,38.443 519.42,35.836 519.929,34.135 C520.854,31.041 521.449,27.832 521.449,24.479 C521.449,12.004 512.014,1.894 500.375,1.894 L500.375,1.894 Z" id="Fill-9" fill="#DD2827" sketch:type="MSShapeGroup"></path>
            <path d="M190.848,103.589 C188.535,103.589 186.45,104.644 184.992,106.328 C183.534,104.644 181.449,103.589 179.135,103.589 C174.725,103.589 171.148,107.423 171.148,112.151 C171.148,113.422 171.357,114.643 171.724,115.81 C171.724,115.81 172.057,116.865 172.35,117.444 C175.718,124.856 184.992,129.666 184.992,129.666 C184.992,129.666 194.266,124.856 197.633,117.444 C197.633,117.444 198.066,116.455 198.26,115.81 C198.611,114.639 198.836,113.422 198.836,112.151 C198.836,107.423 195.259,103.589 190.848,103.589 L190.848,103.589 Z" id="Fill-10" fill="#DD2827" sketch:type="MSShapeGroup"></path>
            <path d="M540.598,9.135 L535.003,12.935 L533.841,10.982 L540.071,8.026 L533.841,5.07 L535.003,3.119 L540.598,6.919 L540.124,0.216 L542.339,0.216 L541.865,6.919 L547.46,3.119 L548.621,5.07 L542.392,8.026 L548.621,10.982 L547.46,12.935 L541.865,9.135 L542.339,15.838 L540.124,15.838 L540.598,9.135" id="Fill-11" fill="#FFFFFF" sketch:type="MSShapeGroup"></path>
            <path d="M6.981,110.328 L3.145,113.048 L2.139,111.297 L6.46,109.323 L2.139,107.311 L3.145,105.597 L6.981,108.28 L6.609,103.623 L8.546,103.623 L8.173,108.28 L12.011,105.597 L13.017,107.311 L8.695,109.323 L13.017,111.297 L12.011,113.048 L8.173,110.328 L8.546,114.985 L6.609,114.985 L6.981,110.328" id="Fill-12" fill="#FFFFFF" sketch:type="MSShapeGroup"></path>
            <path d="M27.143,127.092 L29.825,127.092 C32.321,123.106 33.774,116.698 33.774,108.242 L33.774,103.698 L50.835,103.698 L50.835,127.092 L54.225,127.092 L53.777,135.585 L51.319,135.585 L51.319,129.774 L30.161,129.774 L29.639,135.585 L27.143,135.585 L27.143,127.092 L27.143,127.092 Z M47.892,127.092 L47.892,106.38 L36.604,106.38 L36.604,109.769 C36.604,116.513 35.301,123.516 33.141,127.092 L47.892,127.092 L47.892,127.092 Z" id="Fill-13" fill="#FFFFFF" sketch:type="MSShapeGroup"></path>
            <path d="M56.878,120.163 C56.878,114.575 60.79,110.105 66.117,110.105 C71.816,110.105 75.094,114.65 75.094,120.312 C75.094,120.573 75.094,120.871 75.057,121.318 L59.784,121.318 C60.194,125.379 63.174,127.725 66.564,127.725 C69.208,127.725 71.071,126.645 72.636,125.006 L74.424,126.608 C72.487,128.768 70.14,130.221 66.489,130.221 C61.2,130.221 56.878,126.16 56.878,120.163 L56.878,120.163 Z M72.189,119.008 C71.854,115.506 69.842,112.526 66.042,112.526 C62.726,112.526 60.194,115.283 59.784,119.008 L72.189,119.008 L72.189,119.008 Z" id="Fill-14" fill="#FFFFFF" sketch:type="MSShapeGroup"></path>
            <path d="M76.889,129.774 L77.224,127.315 C77.596,127.427 78.266,127.576 78.602,127.576 C80.912,127.576 82.849,126.57 82.849,112.116 L82.849,110.515 L96.483,110.515 L96.483,129.774 L93.614,129.774 L93.614,113.048 L85.568,113.048 L85.568,113.495 C85.568,128.507 82.849,130.071 79.198,130.071 C78.565,130.071 77.484,129.922 76.889,129.774" id="Fill-15" fill="#FFFFFF" sketch:type="MSShapeGroup"></path>
            <path d="M102.896,110.515 L105.765,110.515 L105.765,125.75 L117.201,110.515 L119.995,110.515 L119.995,129.774 L117.127,129.774 L117.127,114.537 L105.653,129.774 L102.896,129.774 L102.896,110.515" id="Fill-16" fill="#FFFFFF" sketch:type="MSShapeGroup"></path>
            <path d="M125.218,120.163 C125.218,114.724 129.465,110.105 135.089,110.105 C138.74,110.105 141.013,111.633 142.801,113.532 L140.975,115.469 C139.448,113.867 137.66,112.638 135.052,112.638 C131.141,112.638 128.161,115.954 128.161,120.163 C128.161,124.335 131.215,127.65 135.238,127.65 C137.697,127.65 139.522,126.384 141.05,124.745 L142.949,126.495 C141.013,128.656 138.703,130.221 135.089,130.221 C129.465,130.221 125.218,125.639 125.218,120.163" id="Fill-17" fill="#FFFFFF" sketch:type="MSShapeGroup"></path>
            <path d="M147.687,110.515 L150.555,110.515 L150.555,117.742 L155.696,117.742 C159.868,117.742 163.296,119.455 163.296,123.516 C163.296,127.352 160.427,129.774 156.031,129.774 L147.687,129.774 L147.687,110.515 L147.687,110.515 Z M155.771,127.241 C158.639,127.241 160.39,126.012 160.39,123.59 C160.39,121.355 158.602,120.2 155.659,120.2 L150.555,120.2 L150.555,127.241 L155.771,127.241 L155.771,127.241 Z" id="Fill-18" fill="#FFFFFF" sketch:type="MSShapeGroup"></path>
        </g>
    </g>
</svg>