<svg width="253" height="58" viewBox="0 0 253 58" xmlns="http://www.w3.org/2000/svg" xmlns:sketch="http://www.bohemiancoding.com/sketch/ns"><title>title-description</title><desc>Created with Sketch.</desc><g sketch:type="MSLayerGroup" fill="none"><path d="M50.719 49.288c-.609 0-1.159.278-1.543.722-.384-.443-.934-.722-1.543-.722-1.162 0-2.104 1.01-2.104 2.256 0 .335.055.657.152.964 0 0 .088.278.165.431.887 1.953 3.331 3.22 3.331 3.22s2.444-1.267 3.331-3.22c0 0 .114-.26.165-.431.092-.309.152-.629.152-.964 0-1.246-.942-2.256-2.105-2.256z" fill="#DD2827" sketch:type="MSShapeGroup"/><path d="M2.274 51.064l-1.011.717-.265-.461 1.139-.52-1.139-.53.265-.451 1.011.707-.098-1.227h.51l-.098 1.227 1.011-.707.265.451-1.139.53 1.139.52-.265.461-1.011-.717.098 1.227h-.51l.098-1.227" fill="#fff" sketch:type="MSShapeGroup"/><path d="M7.586 55.48h.707c.658-1.05 1.04-2.738 1.04-4.966v-1.198h4.495v6.164h.893l-.118 2.238h-.648v-1.531h-5.574l-.138 1.531h-.658v-2.238zm5.467 0v-5.457h-2.974v.893c0 1.777-.344 3.622-.913 4.564h3.886z" fill="#fff" sketch:type="MSShapeGroup"/><path d="M15.421 53.655c0-1.472 1.031-2.65 2.434-2.65 1.502 0 2.365 1.197 2.365 2.689l-.01.265h-4.024c.108 1.07.893 1.688 1.786 1.688.697 0 1.188-.285 1.6-.717l.471.422c-.51.569-1.129.952-2.091.952-1.393 0-2.532-1.07-2.532-2.65zm4.034-.304c-.088-.922-.618-1.708-1.619-1.708-.874 0-1.541.726-1.649 1.708h3.268z" fill="#fff" sketch:type="MSShapeGroup"/><path d="M20.693 56.187l.089-.648c.098.029.274.069.363.069.609 0 1.119-.265 1.119-4.073v-.422h3.592v5.074h-.756v-4.407h-2.12v.118c0 3.955-.717 4.367-1.679 4.367-.167 0-.451-.039-.609-.078" fill="#fff" sketch:type="MSShapeGroup"/><path d="M27.546 51.113h.756v4.014l3.013-4.014h.737v5.074h-.756v-4.014l-3.023 4.014h-.726v-5.074" fill="#fff" sketch:type="MSShapeGroup"/><path d="M33.427 53.655c0-1.433 1.119-2.65 2.601-2.65.962 0 1.56.402 2.031.903l-.481.51c-.402-.422-.874-.746-1.56-.746-1.031 0-1.816.873-1.816 1.982 0 1.099.805 1.973 1.865 1.973.647 0 1.129-.333 1.531-.765l.5.461c-.51.569-1.119.982-2.071.982-1.482 0-2.601-1.208-2.601-2.65" fill="#fff" sketch:type="MSShapeGroup"/><path d="M39.347 51.113h.756v1.905h1.355c1.099 0 2.003.451 2.003 1.521 0 1.011-.756 1.649-1.914 1.649h-2.199v-5.074zm2.13 4.407c.756 0 1.217-.323 1.217-.962 0-.589-.471-.893-1.246-.893h-1.345v1.855h1.374z" fill="#fff" sketch:type="MSShapeGroup"/><path d="M.322 28.512l4.425-5.286c2.827 2.254 5.982 3.443 9.302 3.443 2.131 0 3.278-.738 3.278-2.049 0-1.189-.942-1.844-4.835-2.746-6.105-1.393-10.818-3.114-10.818-9.097 0-5.327 4.221-9.178 11.105-9.178 4.876 0 8.687 1.311 11.801 3.81l-3.975 5.614c-2.623-1.843-5.491-2.827-8.032-2.827-1.926 0-2.868.82-2.868 1.926 0 1.312.984 1.885 4.958 2.787 6.597 1.434 10.695 3.565 10.695 9.015 0 5.86-4.63 9.342-11.596 9.342-5.081 0-9.916-1.598-13.44-4.754" fill="#fff" sketch:type="MSShapeGroup"/><path d="M28.758 2.862h7.786v10.776c1.434-1.843 3.483-3.524 6.638-3.524 4.713 0 7.54 3.114 7.54 8.154v14.506h-7.786v-12.006c0-2.418-1.27-3.729-3.114-3.729-1.885 0-3.278 1.311-3.278 3.729v12.006h-7.786v-29.913" fill="#fff" sketch:type="MSShapeGroup"/><path d="M53.63 26.341c0-4.589 3.483-6.965 8.687-6.965 2.049 0 4.057.409 5.327.86v-.369c0-2.295-1.434-3.605-4.425-3.605-2.336 0-4.139.45-6.106 1.229l-1.598-5.491c2.5-1.024 5.163-1.721 8.974-1.721 3.975 0 6.679.943 8.441 2.704 1.68 1.639 2.377 3.934 2.377 7.049v12.744h-7.704v-2.295c-1.516 1.68-3.606 2.786-6.515 2.786-4.221 0-7.458-2.418-7.458-6.925zm14.096-1.598v-1.024c-.779-.328-1.885-.573-3.032-.573-2.254 0-3.565 1.106-3.565 2.827 0 1.516 1.147 2.418 2.745 2.418 2.254 0 3.852-1.434 3.852-3.647z" fill="#fff" sketch:type="MSShapeGroup"/><path d="M79.28 10.606h7.786v4.466c1.27-3.032 3.319-4.999 7.007-4.835v8.195h-.656c-4.056 0-6.351 2.336-6.351 7.458v6.884h-7.786v-22.169" fill="#fff" sketch:type="MSShapeGroup"/><path d="M95.507 21.711c0-6.475 4.63-11.597 11.187-11.597 7.662 0 11.187 5.614 11.187 12.129 0 .492 0 1.065-.041 1.598h-14.833c.614 2.417 2.376 3.647 4.794 3.647 1.844 0 3.319-.697 4.917-2.254l4.302 3.565c-2.13 2.704-5.204 4.507-9.629 4.507-6.966 0-11.883-4.63-11.883-11.596zm15.079-1.845c-.287-2.459-1.721-4.016-3.851-4.016-2.049 0-3.442 1.598-3.852 4.016h7.703z" fill="#fff" sketch:type="MSShapeGroup"/><path d="M133.901 25.89v-9.015h-2.623v-6.269h2.623v-5.614h7.785v5.614h5.163v6.269h-5.163v7.499c0 1.557.696 2.213 2.131 2.213 1.025 0 2.008-.287 2.95-.738v6.106c-1.393.779-3.237 1.27-5.409 1.27-4.671 0-7.457-2.049-7.457-7.335" fill="#fff" sketch:type="MSShapeGroup"/><path d="M150.209 2.862h7.786v10.776c1.434-1.843 3.483-3.524 6.638-3.524 4.712 0 7.54 3.114 7.54 8.154v14.506h-7.786v-12.006c0-2.418-1.271-3.729-3.114-3.729-1.885 0-3.278 1.311-3.278 3.729v12.006h-7.786v-29.913" fill="#fff" sketch:type="MSShapeGroup"/><path d="M175.286 21.711c0-6.475 4.63-11.597 11.187-11.597 7.663 0 11.186 5.614 11.186 12.129 0 .492 0 1.065-.041 1.598h-14.833c.615 2.417 2.376 3.647 4.794 3.647 1.844 0 3.319-.697 4.917-2.254l4.302 3.565c-2.131 2.704-5.204 4.507-9.629 4.507-6.966 0-11.883-4.63-11.883-11.596zm15.079-1.845c-.287-2.459-1.721-4.016-3.852-4.016-2.049 0-3.442 1.598-3.851 4.016h7.703z" fill="#fff" sketch:type="MSShapeGroup"/><path d="M233.57 1.818c-2.848 0-5.414 1.299-7.211 3.373-1.797-2.073-4.362-3.373-7.211-3.373-5.432 0-9.837 4.719-9.837 10.542 0 1.566.259 3.07.71 4.508 0 0 .41 1.297.772 2.011 4.146 9.129 15.567 15.05 15.567 15.05s11.419-5.921 15.565-15.05c0 0 .535-1.217.773-2.011.432-1.444.71-2.942.71-4.508 0-5.823-4.404-10.542-9.837-10.542z" fill="#DD2827" sketch:type="MSShapeGroup"/><path d="M250.333 2.996l-1.831 1.244-.38-.639 2.038-.967-2.038-.968.38-.639 1.831 1.244-.155-2.193h.725l-.155 2.193 1.831-1.244.38.639-2.038.968 2.038.967-.38.639-1.831-1.244.155 2.193h-.725l.155-2.193" fill="#fff" sketch:type="MSShapeGroup"/></g></svg>