<svg width="244" height="33" viewBox="0 0 244 33" xmlns="http://www.w3.org/2000/svg" xmlns:sketch="http://www.bohemiancoding.com/sketch/ns"><title>title</title><desc>Created with Sketch.</desc><g sketch:type="MSLayerGroup" fill="none"><path d="M.322 27.512l4.425-5.286c2.827 2.254 5.982 3.443 9.302 3.443 2.131 0 3.278-.738 3.278-2.049 0-1.189-.942-1.844-4.835-2.746-6.105-1.393-10.818-3.114-10.818-9.097 0-5.327 4.221-9.178 11.105-9.178 4.876 0 8.687 1.311 11.801 3.81l-3.975 5.614c-2.623-1.843-5.491-2.827-8.032-2.827-1.926 0-2.868.82-2.868 1.926 0 1.312.984 1.885 4.958 2.787 6.597 1.434 10.695 3.565 10.695 9.015 0 5.86-4.63 9.342-11.596 9.342-5.081 0-9.916-1.598-13.44-4.754" fill="#fff" sketch:type="MSShapeGroup"/><path d="M28.758 1.862h7.786v10.776c1.434-1.843 3.483-3.524 6.638-3.524 4.713 0 7.54 3.114 7.54 8.154v14.506h-7.786v-12.006c0-2.418-1.27-3.729-3.114-3.729-1.885 0-3.278 1.311-3.278 3.729v12.006h-7.786v-29.913" fill="#fff" sketch:type="MSShapeGroup"/><path d="M53.63 25.341c0-4.589 3.483-6.965 8.687-6.965 2.049 0 4.057.409 5.327.86v-.369c0-2.295-1.434-3.605-4.425-3.605-2.336 0-4.139.45-6.106 1.229l-1.598-5.491c2.5-1.024 5.163-1.721 8.974-1.721 3.975 0 6.679.943 8.441 2.704 1.68 1.639 2.377 3.934 2.377 7.049v12.744h-7.704v-2.295c-1.516 1.68-3.606 2.786-6.515 2.786-4.221 0-7.458-2.418-7.458-6.925zm14.096-1.598v-1.024c-.779-.328-1.885-.573-3.032-.573-2.254 0-3.565 1.106-3.565 2.827 0 1.516 1.147 2.418 2.745 2.418 2.254 0 3.852-1.434 3.852-3.647z" fill="#fff" sketch:type="MSShapeGroup"/><path d="M79.28 9.606h7.786v4.466c1.27-3.032 3.319-4.999 7.007-4.835v8.195h-.656c-4.056 0-6.351 2.336-6.351 7.458v6.884h-7.786v-22.169" fill="#fff" sketch:type="MSShapeGroup"/><path d="M95.507 20.711c0-6.475 4.63-11.597 11.187-11.597 7.662 0 11.187 5.614 11.187 12.129 0 .492 0 1.065-.041 1.598h-14.833c.614 2.417 2.376 3.647 4.794 3.647 1.844 0 3.319-.697 4.917-2.254l4.302 3.565c-2.13 2.704-5.204 4.507-9.629 4.507-6.966 0-11.883-4.63-11.883-11.596zm15.079-1.845c-.287-2.459-1.721-4.016-3.851-4.016-2.049 0-3.442 1.598-3.852 4.016h7.703z" fill="#fff" sketch:type="MSShapeGroup"/><path d="M133.901 24.89v-9.015h-2.623v-6.269h2.623v-5.614h7.785v5.614h5.163v6.269h-5.163v7.499c0 1.557.696 2.213 2.131 2.213 1.025 0 2.008-.287 2.95-.738v6.106c-1.393.779-3.237 1.27-5.409 1.27-4.671 0-7.457-2.049-7.457-7.335" fill="#fff" sketch:type="MSShapeGroup"/><path d="M150.209 1.862h7.786v10.776c1.434-1.843 3.483-3.524 6.638-3.524 4.712 0 7.54 3.114 7.54 8.154v14.506h-7.786v-12.006c0-2.418-1.271-3.729-3.114-3.729-1.885 0-3.278 1.311-3.278 3.729v12.006h-7.786v-29.913" fill="#fff" sketch:type="MSShapeGroup"/><path d="M175.286 20.711c0-6.475 4.63-11.597 11.187-11.597 7.663 0 11.186 5.614 11.186 12.129 0 .492 0 1.065-.041 1.598h-14.833c.615 2.417 2.376 3.647 4.794 3.647 1.844 0 3.319-.697 4.917-2.254l4.302 3.565c-2.131 2.704-5.204 4.507-9.629 4.507-6.966 0-11.883-4.63-11.883-11.596zm15.079-1.845c-.287-2.459-1.721-4.016-3.852-4.016-2.049 0-3.442 1.598-3.851 4.016h7.703z" fill="#fff" sketch:type="MSShapeGroup"/><path d="M233.57.818c-2.848 0-5.414 1.299-7.211 3.373-1.797-2.073-4.362-3.373-7.211-3.373-5.432 0-9.837 4.719-9.837 10.542 0 1.566.259 3.07.71 4.508 0 0 .41 1.297.772 2.011 4.146 9.129 15.567 15.05 15.567 15.05s11.419-5.921 15.565-15.05c0 0 .535-1.217.773-2.011.432-1.444.71-2.942.71-4.508 0-5.823-4.404-10.542-9.837-10.542z" fill="#DD2827" sketch:type="MSShapeGroup"/></g></svg>