<svg width="32" height="19" viewBox="0 0 32 19" xmlns="http://www.w3.org/2000/svg" xmlns:sketch="http://www.bohemiancoding.com/sketch/ns"><title>vk</title><desc>Created with Sketch.</desc><path d="M26.813 11.362c1.919 1.767 3.257 3.206 4.015 4.317.354.555.467 1.048.341 1.477-.126.429-.417.644-.871.644l-4.999.227c-.707.051-1.566-.379-2.575-1.288-1.011-.908-1.692-1.666-2.046-2.272-.202-.353-.568-.555-1.098-.606-.53-.05-.871.202-1.023.758l-.151 1.969c-.051.404-.202.707-.454.909-.253.202-.467.316-.644.341l-.871.114c-1.314.05-2.462-.013-3.447-.19-.985-.177-1.881-.543-2.689-1.098-.808-.556-1.452-1.06-1.931-1.516-.48-.454-1.174-1.186-2.083-2.196-2.474-3.534-4.317-6.59-5.529-9.165-.455-1.01-.707-1.869-.758-2.575.202-.202.581-.328 1.137-.379.555-.05 1.363-.063 2.423-.038 1.06.026 1.691.038 1.894.038.505-.05.909.228 1.212.833 1.262 2.828 2.499 5.024 3.711 6.59.808.757 1.338.631 1.591-.379.101 0 .152-1.237.152-3.711.049-1.566-.581-2.55-1.894-2.954.303-.808 1.363-1.212 3.181-1.212.455 0 1.01.025 1.667.075.655.051 1.009.076 1.059.076 1.516 0 2.273.606 2.273 1.818 0 .152-.025.518-.076 1.098-.05.581-.088 1.137-.113 1.667-.026.53-.038 1.085-.038 1.666s.075 1.073.227 1.477c.151.404.354.657.606.758l.795-.568c.253-.177.518-.467.796-.872.278-.404.492-.707.643-.908.152-.203.379-.581.682-1.137.303-.555.48-.908.53-1.06.051-.151.227-.543.53-1.174l.455-.947.113-.227c.202-.454.367-.719.493-.795.126-.076.442-.114.946-.114h4.697c.555 0 .884.013.984.038.101.026.254.139.455.341.353.454.038 1.439-.947 2.954-.984 1.515-1.931 2.777-2.84 3.788-1.262 1.413-1.439 2.549-.531 3.408" sketch:type="MSShapeGroup" fill="#fff"/></svg>