<?xml version="1.0" encoding="UTF-8" standalone="no"?>
<svg width="46px" height="46px" viewBox="0 0 46 46" version="1.1" xmlns="http://www.w3.org/2000/svg" xmlns:xlink="http://www.w3.org/1999/xlink" xmlns:sketch="http://www.bohemiancoding.com/sketch/ns">
    <!-- Generator: Sketch 3.3.3 (12072) - http://www.bohemiancoding.com/sketch -->
    <title>zoom-out</title>
    <desc>Created with Sketch.</desc>
    <defs></defs>
    <g id="Page-1" stroke="none" stroke-width="1" fill="none" fill-rule="evenodd" sketch:type="MSPage">
        <path d="M22.568,45.943 C10.162,45.943 0.068,35.85 0.068,23.443 C0.068,11.036 10.162,0.943 22.568,0.943 C34.975,0.943 45.068,11.036 45.068,23.443 C45.068,35.85 34.975,45.943 22.568,45.943 L22.568,45.943 Z M22.568,1.943 C10.713,1.943 1.068,11.588 1.068,23.443 C1.068,35.298 10.713,44.943 22.568,44.943 C34.424,44.943 44.068,35.298 44.068,23.443 C44.068,11.588 34.424,1.943 22.568,1.943 Z M33.506,23.943 L11.631,23.943 C11.355,23.943 11.131,23.719 11.131,23.443 C11.131,23.167 11.355,22.943 11.631,22.943 L33.506,22.943 C33.782,22.943 34.006,23.167 34.006,23.443 C34.006,23.719 33.782,23.943 33.506,23.943 Z" id="zoom-out" fill="#FFFFFF" sketch:type="MSShapeGroup"></path>
    </g>
</svg>