<?xml version="1.0" encoding="UTF-8" standalone="no"?>
<svg width="46px" height="46px" viewBox="0 0 46 46" version="1.1" xmlns="http://www.w3.org/2000/svg" xmlns:xlink="http://www.w3.org/1999/xlink" xmlns:sketch="http://www.bohemiancoding.com/sketch/ns">
    <!-- Generator: Sketch 3.3.3 (12072) - http://www.bohemiancoding.com/sketch -->
    <title>zoom-in</title>
    <desc>Created with Sketch.</desc>
    <defs></defs>
    <g id="Page-1" stroke="none" stroke-width="1" fill="none" fill-rule="evenodd" sketch:type="MSPage">
        <path d="M22.62,45.943 C10.214,45.943 0.12,35.85 0.12,23.443 C0.12,11.036 10.214,0.943 22.62,0.943 C35.026,0.943 45.12,11.036 45.12,23.443 C45.12,35.85 35.026,45.943 22.62,45.943 L22.62,45.943 Z M22.09,23.943 L22.09,34.38 C22.09,34.657 22.314,34.88 22.59,34.88 C22.866,34.88 23.09,34.657 23.09,34.38 L23.09,23.943 L33.527,23.943 C33.804,23.943 34.027,23.719 34.027,23.443 C34.027,23.167 33.804,22.943 33.527,22.943 L23.09,22.943 L23.09,12.505 C23.09,12.229 22.866,12.005 22.59,12.005 C22.314,12.005 22.09,12.229 22.09,12.505 L22.09,22.943 L11.652,22.943 C11.376,22.943 11.152,23.167 11.152,23.443 C11.152,23.719 11.376,23.943 11.652,23.943 L22.09,23.943 Z M22.62,1.943 C10.765,1.943 1.12,11.588 1.12,23.443 C1.12,35.298 10.765,44.943 22.62,44.943 C34.476,44.943 44.12,35.298 44.12,23.443 C44.12,11.588 34.476,1.943 22.62,1.943 Z" id="zoom-in" fill="#FFFFFF" sketch:type="MSShapeGroup"></path>
    </g>
</svg>